solid router
facet normal -0.0 -0.0 1.0
  outer loop
    vertex 16.8 0.0 8.3
    vertex 0.0 15.999999999999998 8.3
    vertex 0.0 0.0 8.3
  endloop
endfacet
facet normal -0.0 -0.0 1.0
  outer loop
    vertex 0.0 15.999999999999998 8.3
    vertex 16.8 0.0 8.3
    vertex 16.8 15.999999999999998 8.3
  endloop
endfacet
facet normal 1.5312160285156122e-21 -1.0 6.909313785667511e-21
  outer loop
    vertex 49.0041436518973 9.357085276723613e-20 14.290939466222689
    vertex 41.40375426929892 9.357085276723613e-20 12.293640486910334
    vertex 49.003754269298916 9.357085276723613e-20 12.29093948691033
  endloop
endfacet
facet normal 1.5312160285156122e-21 -1.0 6.909313785667511e-21
  outer loop
    vertex 41.402943422708994 4.678542638361807e-20 3.0000000000000027
    vertex 39.4 0.0 5.000000000000002
    vertex 39.4 0.0 3.000000000000002
  endloop
endfacet
facet normal 1.5312160285156122e-21 -1.0 6.909313785667511e-21
  outer loop
    vertex 39.4 0.0 5.000000000000002
    vertex 41.402943422708994 4.678542638361807e-20 3.0000000000000027
    vertex 41.40375426929892 9.357085276723613e-20 12.293640486910334
  endloop
endfacet
facet normal 1.5312160285156122e-21 -1.0 6.909313785667511e-21
  outer loop
    vertex 39.4 0.0 5.000000000000002
    vertex 41.40375426929892 9.357085276723613e-20 12.293640486910334
    vertex 39.4041436518973 9.357085276723613e-20 14.293640466222692
  endloop
endfacet
facet normal 1.5312160285156122e-21 -1.0 6.909313785667511e-21
  outer loop
    vertex 39.4041436518973 9.357085276723613e-20 14.293640466222692
    vertex 41.40375426929892 9.357085276723613e-20 12.293640486910334
    vertex 49.0041436518973 9.357085276723613e-20 14.290939466222689
  endloop
endfacet
facet normal -0.0 -0.0 1.0
  outer loop
    vertex 39.4 0.0 5.000000000000002
    vertex 21.0 15.999999999999998 5.000000000000002
    vertex 21.0 0.0 5.000000000000002
  endloop
endfacet
facet normal -0.0 -0.0 1.0
  outer loop
    vertex 21.0 15.999999999999998 5.000000000000002
    vertex 39.4 0.0 5.000000000000002
    vertex 39.4 15.999999999999998 5.000000000000002
  endloop
endfacet
facet normal -0.0 -0.0 1.0
  outer loop
    vertex 21.0 0.0 0.0
    vertex 16.8 15.999999999999998 0.0
    vertex 16.8 0.0 0.0
  endloop
endfacet
facet normal -0.0 -0.0 1.0
  outer loop
    vertex 16.8 15.999999999999998 0.0
    vertex 21.0 0.0 0.0
    vertex 21.0 15.999999999999998 0.0
  endloop
endfacet
facet normal 1.0 -0.0 -0.0
  outer loop
    vertex 16.8 15.999999999999998 0.0
    vertex 16.8 0.0 8.3
    vertex 16.8 0.0 0.0
  endloop
endfacet
facet normal 1.0 -0.0 -0.0
  outer loop
    vertex 16.8 0.0 8.3
    vertex 16.8 15.999999999999998 0.0
    vertex 16.8 15.999999999999998 8.3
  endloop
endfacet
facet normal -1.0 0.0 0.0
  outer loop
    vertex 21.0 15.999999999999998 5.000000000000002
    vertex 21.0 0.0 0.0
    vertex 21.0 0.0 5.000000000000002
  endloop
endfacet
facet normal -1.0 0.0 0.0
  outer loop
    vertex 21.0 0.0 0.0
    vertex 21.0 15.999999999999998 5.000000000000002
    vertex 21.0 15.999999999999998 0.0
  endloop
endfacet
facet normal 2.882213917028581e-17 1.0 -1.3029950447404004e-16
  outer loop
    vertex 1.762479051592436e-16 15.999999999999998 5.2042553191489365
    vertex 21.0 15.999999999999993 -3.999999999999999
    vertex 16.8 15.999999999999998 -3.999999999999999
  endloop
endfacet
facet normal 2.882213917028581e-17 1.0 -1.3029950447404004e-16
  outer loop
    vertex 21.0 15.999999999999993 -3.999999999999999
    vertex 1.762479051592436e-16 15.999999999999998 5.2042553191489365
    vertex 16.8 15.999999999999998 0.0
  endloop
endfacet
facet normal 2.882213917028581e-17 1.0 -1.3029950447404004e-16
  outer loop
    vertex 16.8 15.999999999999998 0.0
    vertex 1.762479051592436e-16 15.999999999999998 5.2042553191489365
    vertex 16.8 15.999999999999998 8.3
  endloop
endfacet
facet normal 2.882213917028581e-17 1.0 -1.3029950447404004e-16
  outer loop
    vertex 16.8 15.999999999999998 8.3
    vertex 1.762479051592436e-16 15.999999999999998 5.2042553191489365
    vertex 0.0 15.999999999999998 8.3
  endloop
endfacet
facet normal 2.882213917028581e-17 1.0 -1.3029950447404004e-16
  outer loop
    vertex 21.0 15.999999999999993 -3.999999999999999
    vertex 21.0 15.999999999999998 0.0
    vertex 41.402943422708994 15.999999999999993 3.0000000000000027
  endloop
endfacet
facet normal 2.882213917028581e-17 1.0 -1.3029950447404004e-16
  outer loop
    vertex 21.0 15.999999999999998 0.0
    vertex 21.0 15.999999999999993 -3.999999999999999
    vertex 16.8 15.999999999999998 0.0
  endloop
endfacet
facet normal 2.882213917028581e-17 1.0 -1.3029950447404004e-16
  outer loop
    vertex 41.402943422708994 15.999999999999993 3.0000000000000027
    vertex 21.0 15.999999999999998 0.0
    vertex 21.0 15.999999999999998 5.000000000000002
  endloop
endfacet
facet normal 2.882213917028581e-17 1.0 -1.3029950447404004e-16
  outer loop
    vertex 41.402943422708994 15.999999999999993 3.0000000000000027
    vertex 21.0 15.999999999999998 5.000000000000002
    vertex 39.4 15.999999999999998 5.000000000000002
  endloop
endfacet
facet normal 2.882213917028581e-17 1.0 -1.3029950447404004e-16
  outer loop
    vertex 41.402943422708994 15.999999999999993 3.0000000000000027
    vertex 39.4 15.999999999999998 5.000000000000002
    vertex 41.40375426929892 15.999999999999998 12.293640486910334
  endloop
endfacet
facet normal 2.882213917028581e-17 1.0 -1.3029950447404004e-16
  outer loop
    vertex 41.40375426929892 15.999999999999998 12.293640486910334
    vertex 39.4 15.999999999999998 5.000000000000002
    vertex 39.4041436518973 15.999999999999998 14.293640466222692
  endloop
endfacet
facet normal 2.882213917028581e-17 1.0 -1.3029950447404004e-16
  outer loop
    vertex 41.40375426929892 15.999999999999998 12.293640486910334
    vertex 39.4041436518973 15.999999999999998 14.293640466222692
    vertex 49.0041436518973 15.999999999999998 14.290939466222689
  endloop
endfacet
facet normal 2.882213917028581e-17 1.0 -1.3029950447404004e-16
  outer loop
    vertex 49.0041436518973 15.999999999999998 14.290939466222689
    vertex 49.003754269298916 15.999999999999998 12.29093948691033
    vertex 41.40375426929892 15.999999999999998 12.293640486910334
  endloop
endfacet
facet normal 0.00030182690932910674 0.0 0.9999999544502575
  outer loop
    vertex 39.4041436518973 9.357085276723613e-20 14.293640466222692
    vertex 42.46547723339354 7.534125718815462 14.292779147263982
    vertex 39.4041436518973 15.999999999999998 14.293640466222692
  endloop
endfacet
facet normal 0.00030182690932910674 0.0 0.9999999544502575
  outer loop
    vertex 42.46547723339354 7.534125718815462 14.292779147263982
    vertex 39.4041436518973 9.357085276723613e-20 14.293640466222692
    vertex 42.64529798678455 7.1 14.292728553945762
  endloop
endfacet
facet normal 0.00030182690932910674 0.0 0.9999999544502575
  outer loop
    vertex 42.64529798678455 7.1 14.292728553945762
    vertex 39.4041436518973 9.357085276723613e-20 14.293640466222692
    vertex 42.93135149613874 6.727207793864213 14.292648071599015
  endloop
endfacet
facet normal 0.00030182690932910674 0.0 0.9999999544502575
  outer loop
    vertex 42.93135149613874 6.727207793864213 14.292648071599015
    vertex 39.4041436518973 9.357085276723613e-20 14.293640466222692
    vertex 49.0041436518973 9.357085276723613e-20 14.290939466222689
  endloop
endfacet
facet normal 0.00030182690932910674 0.0 0.9999999544502575
  outer loop
    vertex 39.4041436518973 15.999999999999998 14.293640466222692
    vertex 42.46547723339354 7.534125718815462 14.292779147263982
    vertex 42.404143723141445 7.999999999999999 14.292796403702647
  endloop
endfacet
facet normal 0.00030182690932910674 0.0 0.9999999544502575
  outer loop
    vertex 42.93135149613874 6.727207793864213 14.292648071599015
    vertex 49.0041436518973 9.357085276723613e-20 14.290939466222689
    vertex 43.30414368751937 6.441154273188011 14.29254318496267
  endloop
endfacet
facet normal 0.00030182690932910674 0.0 0.9999999544502575
  outer loop
    vertex 43.30414368751937 6.441154273188011 14.29254318496267
    vertex 49.0041436518973 9.357085276723613e-20 14.290939466222689
    vertex 43.73826938915211 6.261333512679677 14.292421041887657
  endloop
endfacet
facet normal 0.00030182690932910674 0.0 0.9999999544502575
  outer loop
    vertex 43.73826938915211 6.261333512679677 14.292421041887657
    vertex 49.0041436518973 9.357085276723613e-20 14.290939466222689
    vertex 44.204143651897304 6.2 14.292289966222691
  endloop
endfacet
facet normal 0.00030182690932910674 0.0 0.9999999544502575
  outer loop
    vertex 44.204143651897304 6.2 14.292289966222691
    vertex 49.0041436518973 9.357085276723613e-20 14.290939466222689
    vertex 44.6700179146425 6.261333512679676 14.292158890557724
  endloop
endfacet
facet normal 0.00030182690932910674 0.0 0.9999999544502575
  outer loop
    vertex 44.6700179146425 6.261333512679676 14.292158890557724
    vertex 49.0041436518973 9.357085276723613e-20 14.290939466222689
    vertex 45.10414361627523 6.441154273188009 14.292036747482713
  endloop
endfacet
facet normal 0.00030182690932910674 0.0 0.9999999544502575
  outer loop
    vertex 45.10414361627523 6.441154273188009 14.292036747482713
    vertex 49.0041436518973 9.357085276723613e-20 14.290939466222689
    vertex 45.12832025508262 6.459705661357804 14.292029945284648
  endloop
endfacet
facet normal 0.00030182690932910674 0.0 0.9999999544502575
  outer loop
    vertex 45.12832025508262 6.459705661357804 14.292029945284648
    vertex 49.0041436518973 9.357085276723613e-20 14.290939466222689
    vertex 45.47693580765587 6.727207793864213 14.291931860846367
  endloop
endfacet
facet normal 0.00030182690932910674 0.0 0.9999999544502575
  outer loop
    vertex 45.47693580765587 6.727207793864213 14.291931860846367
    vertex 49.0041436518973 9.357085276723613e-20 14.290939466222689
    vertex 45.76298931701005 7.099999999999998 14.291851378499619
  endloop
endfacet
facet normal 0.00030182690932910674 0.0 0.9999999544502575
  outer loop
    vertex 45.76298931701005 7.099999999999998 14.291851378499619
    vertex 49.0041436518973 9.357085276723613e-20 14.290939466222689
    vertex 45.942810070401066 7.534125718815461 14.2918007851814
  endloop
endfacet
facet normal 0.00030182690932910674 0.0 0.9999999544502575
  outer loop
    vertex 45.942810070401066 7.534125718815461 14.2918007851814
    vertex 49.0041436518973 9.357085276723613e-20 14.290939466222689
    vertex 46.00414358065316 7.999999999999999 14.291783528742737
  endloop
endfacet
facet normal 0.00030182690932910674 0.0 0.9999999544502575
  outer loop
    vertex 39.4041436518973 15.999999999999998 14.293640466222692
    vertex 42.93135149613874 9.272792206135785 14.292648071599015
    vertex 49.0041436518973 15.999999999999998 14.290939466222689
  endloop
endfacet
facet normal 0.00030182690932910674 0.0 0.9999999544502575
  outer loop
    vertex 42.93135149613874 9.272792206135785 14.292648071599015
    vertex 39.4041436518973 15.999999999999998 14.293640466222692
    vertex 42.64529798678455 8.899999999999999 14.292728553945762
  endloop
endfacet
facet normal 0.00030182690932910674 0.0 0.9999999544502575
  outer loop
    vertex 42.64529798678455 8.899999999999999 14.292728553945762
    vertex 39.4041436518973 15.999999999999998 14.293640466222692
    vertex 42.46547723339354 8.465874281184536 14.292779147263982
  endloop
endfacet
facet normal 0.00030182690932910674 0.0 0.9999999544502575
  outer loop
    vertex 42.46547723339354 8.465874281184536 14.292779147263982
    vertex 39.4041436518973 15.999999999999998 14.293640466222692
    vertex 42.404143723141445 7.999999999999999 14.292796403702647
  endloop
endfacet
facet normal 0.00030182690932910674 0.0 0.9999999544502575
  outer loop
    vertex 49.0041436518973 15.999999999999998 14.290939466222689
    vertex 42.93135149613874 9.272792206135785 14.292648071599015
    vertex 43.27996704871199 9.540294338642193 14.292549987160733
  endloop
endfacet
facet normal 0.00030182690932910674 0.0 0.9999999544502575
  outer loop
    vertex 49.0041436518973 15.999999999999998 14.290939466222689
    vertex 43.27996704871199 9.540294338642193 14.292549987160733
    vertex 43.30414368751937 9.55884572681199 14.29254318496267
  endloop
endfacet
facet normal 0.00030182690932910674 0.0 0.9999999544502575
  outer loop
    vertex 49.0041436518973 15.999999999999998 14.290939466222689
    vertex 43.30414368751937 9.55884572681199 14.29254318496267
    vertex 43.73826938915211 9.738666487320323 14.292421041887657
  endloop
endfacet
facet normal 0.00030182690932910674 0.0 0.9999999544502575
  outer loop
    vertex 49.0041436518973 15.999999999999998 14.290939466222689
    vertex 43.73826938915211 9.738666487320323 14.292421041887657
    vertex 44.204143651897304 9.799999999999999 14.292289966222691
  endloop
endfacet
facet normal 0.00030182690932910674 0.0 0.9999999544502575
  outer loop
    vertex 49.0041436518973 15.999999999999998 14.290939466222689
    vertex 44.204143651897304 9.799999999999999 14.292289966222691
    vertex 44.6700179146425 9.738666487320323 14.292158890557724
  endloop
endfacet
facet normal 0.00030182690932910674 0.0 0.9999999544502575
  outer loop
    vertex 49.0041436518973 15.999999999999998 14.290939466222689
    vertex 44.6700179146425 9.738666487320323 14.292158890557724
    vertex 45.10414361627523 9.558845726811988 14.292036747482713
  endloop
endfacet
facet normal 0.00030182690932910674 0.0 0.9999999544502575
  outer loop
    vertex 49.0041436518973 15.999999999999998 14.290939466222689
    vertex 45.10414361627523 9.558845726811988 14.292036747482713
    vertex 45.47693580765587 9.272792206135783 14.291931860846367
  endloop
endfacet
facet normal 0.00030182690932910674 0.0 0.9999999544502575
  outer loop
    vertex 49.0041436518973 15.999999999999998 14.290939466222689
    vertex 45.47693580765587 9.272792206135783 14.291931860846367
    vertex 45.76298931701005 8.899999999999999 14.291851378499619
  endloop
endfacet
facet normal 0.00030182690932910674 0.0 0.9999999544502575
  outer loop
    vertex 49.0041436518973 15.999999999999998 14.290939466222689
    vertex 45.76298931701005 8.899999999999999 14.291851378499619
    vertex 45.942810070401066 8.465874281184535 14.2918007851814
  endloop
endfacet
facet normal 0.00030182690932910674 0.0 0.9999999544502575
  outer loop
    vertex 49.0041436518973 15.999999999999998 14.290939466222689
    vertex 45.942810070401066 8.465874281184535 14.2918007851814
    vertex 46.00414358065316 7.999999999999999 14.291783528742737
  endloop
endfacet
facet normal 0.00030182690932910674 0.0 0.9999999544502575
  outer loop
    vertex 49.0041436518973 15.999999999999998 14.290939466222689
    vertex 46.00414358065316 7.999999999999999 14.291783528742737
    vertex 49.0041436518973 9.357085276723613e-20 14.290939466222689
  endloop
endfacet
facet normal -0.9999997491976459 0.0 0.0007082405279645179
  outer loop
    vertex 39.4041436518973 9.357085276723613e-20 14.293640466222692
    vertex 39.4 15.999999999999998 5.000000000000002
    vertex 39.4 0.0 5.000000000000002
  endloop
endfacet
facet normal -0.9999997491976459 0.0 0.0007082405279645179
  outer loop
    vertex 39.4 15.999999999999998 5.000000000000002
    vertex 39.4041436518973 9.357085276723613e-20 14.293640466222692
    vertex 39.4041436518973 15.999999999999998 14.293640466222692
  endloop
endfacet
facet normal 0.9999999961939399 6.15607900639787e-22 -8.724746647775441e-05
  outer loop
    vertex 41.402943422708994 15.999999999999993 3.0000000000000027
    vertex 41.40375426929892 9.357085276723613e-20 12.293640486910334
    vertex 41.402943422708994 4.678542638361807e-20 3.0000000000000027
  endloop
endfacet
facet normal 0.9999999961939399 6.15607900639787e-22 -8.724746647775441e-05
  outer loop
    vertex 41.40375426929892 9.357085276723613e-20 12.293640486910334
    vertex 41.402943422708994 15.999999999999993 3.0000000000000027
    vertex 41.40375426929892 15.999999999999998 12.293640486910334
  endloop
endfacet
facet normal -0.00035539471439834645 0.0 -0.9999999368472965
  outer loop
    vertex 41.40375426929892 15.999999999999998 12.293640486910334
    vertex 42.40375434054307 7.999999999999999 12.29279642439029
    vertex 41.40375426929892 9.357085276723613e-20 12.293640486910334
  endloop
endfacet
facet normal -0.00035539471439834645 0.0 -0.9999999368472965
  outer loop
    vertex 42.40375434054307 7.999999999999999 12.29279642439029
    vertex 41.40375426929892 15.999999999999998 12.293640486910334
    vertex 42.46508785079516 8.465874281184536 12.292779167951624
  endloop
endfacet
facet normal -0.00035539471439834645 0.0 -0.9999999368472965
  outer loop
    vertex 42.46508785079516 8.465874281184536 12.292779167951624
    vertex 41.40375426929892 15.999999999999998 12.293640486910334
    vertex 42.64490860418617 8.899999999999999 12.292728574633404
  endloop
endfacet
facet normal -0.00035539471439834645 0.0 -0.9999999368472965
  outer loop
    vertex 42.64490860418617 8.899999999999999 12.292728574633404
    vertex 41.40375426929892 15.999999999999998 12.293640486910334
    vertex 42.93096211354035 9.272792206135785 12.292648092286656
  endloop
endfacet
facet normal -0.00035539471439834645 0.0 -0.9999999368472965
  outer loop
    vertex 42.93096211354035 9.272792206135785 12.292648092286656
    vertex 41.40375426929892 15.999999999999998 12.293640486910334
    vertex 49.003754269298916 15.999999999999998 12.29093948691033
  endloop
endfacet
facet normal -0.00035539471439834645 0.0 -0.9999999368472965
  outer loop
    vertex 42.93096211354035 9.272792206135785 12.292648092286656
    vertex 49.003754269298916 15.999999999999998 12.29093948691033
    vertex 43.2795776661136 9.540294338642193 12.292550007848375
  endloop
endfacet
facet normal -0.00035539471439834645 0.0 -0.9999999368472965
  outer loop
    vertex 43.2795776661136 9.540294338642193 12.292550007848375
    vertex 49.003754269298916 15.999999999999998 12.29093948691033
    vertex 43.30375430492099 9.55884572681199 12.29254320565031
  endloop
endfacet
facet normal -0.00035539471439834645 0.0 -0.9999999368472965
  outer loop
    vertex 43.30375430492099 9.55884572681199 12.29254320565031
    vertex 49.003754269298916 15.999999999999998 12.29093948691033
    vertex 43.73788000655372 9.738666487320323 12.292421062575299
  endloop
endfacet
facet normal -0.00035539471439834645 0.0 -0.9999999368472965
  outer loop
    vertex 43.73788000655372 9.738666487320323 12.292421062575299
    vertex 49.003754269298916 15.999999999999998 12.29093948691033
    vertex 44.20375426929892 9.799999999999999 12.292289986910333
  endloop
endfacet
facet normal -0.00035539471439834645 0.0 -0.9999999368472965
  outer loop
    vertex 44.20375426929892 9.799999999999999 12.292289986910333
    vertex 49.003754269298916 15.999999999999998 12.29093948691033
    vertex 44.669628532044115 9.738666487320323 12.292158911245366
  endloop
endfacet
facet normal -0.00035539471439834645 0.0 -0.9999999368472965
  outer loop
    vertex 44.669628532044115 9.738666487320323 12.292158911245366
    vertex 49.003754269298916 15.999999999999998 12.29093948691033
    vertex 45.103754233676845 9.558845726811988 12.292036768170355
  endloop
endfacet
facet normal -0.00035539471439834645 0.0 -0.9999999368472965
  outer loop
    vertex 45.103754233676845 9.558845726811988 12.292036768170355
    vertex 49.003754269298916 15.999999999999998 12.29093948691033
    vertex 45.476546425057485 9.272792206135783 12.291931881534008
  endloop
endfacet
facet normal -0.00035539471439834645 0.0 -0.9999999368472965
  outer loop
    vertex 45.476546425057485 9.272792206135783 12.291931881534008
    vertex 49.003754269298916 15.999999999999998 12.29093948691033
    vertex 45.76259993441167 8.899999999999999 12.29185139918726
  endloop
endfacet
facet normal -0.00035539471439834645 0.0 -0.9999999368472965
  outer loop
    vertex 45.76259993441167 8.899999999999999 12.29185139918726
    vertex 49.003754269298916 15.999999999999998 12.29093948691033
    vertex 45.94242068780268 8.465874281184535 12.291800805869041
  endloop
endfacet
facet normal -0.00035539471439834645 0.0 -0.9999999368472965
  outer loop
    vertex 45.94242068780268 8.465874281184535 12.291800805869041
    vertex 49.003754269298916 15.999999999999998 12.29093948691033
    vertex 46.00375419805478 7.999999999999999 12.291783549430377
  endloop
endfacet
facet normal -0.00035539471439834645 0.0 -0.9999999368472965
  outer loop
    vertex 41.40375426929892 9.357085276723613e-20 12.293640486910334
    vertex 42.93096211354035 6.727207793864213 12.292648092286656
    vertex 49.003754269298916 9.357085276723613e-20 12.29093948691033
  endloop
endfacet
facet normal -0.00035539471439834645 0.0 -0.9999999368472965
  outer loop
    vertex 42.93096211354035 6.727207793864213 12.292648092286656
    vertex 41.40375426929892 9.357085276723613e-20 12.293640486910334
    vertex 42.64490860418617 7.1 12.292728574633404
  endloop
endfacet
facet normal -0.00035539471439834645 0.0 -0.9999999368472965
  outer loop
    vertex 42.64490860418617 7.1 12.292728574633404
    vertex 41.40375426929892 9.357085276723613e-20 12.293640486910334
    vertex 42.46508785079516 7.534125718815462 12.292779167951624
  endloop
endfacet
facet normal -0.00035539471439834645 0.0 -0.9999999368472965
  outer loop
    vertex 42.46508785079516 7.534125718815462 12.292779167951624
    vertex 41.40375426929892 9.357085276723613e-20 12.293640486910334
    vertex 42.40375434054307 7.999999999999999 12.29279642439029
  endloop
endfacet
facet normal -0.00035539471439834645 0.0 -0.9999999368472965
  outer loop
    vertex 49.003754269298916 9.357085276723613e-20 12.29093948691033
    vertex 42.93096211354035 6.727207793864213 12.292648092286656
    vertex 43.30375430492099 6.441154273188011 12.29254320565031
  endloop
endfacet
facet normal -0.00035539471439834645 0.0 -0.9999999368472965
  outer loop
    vertex 49.003754269298916 9.357085276723613e-20 12.29093948691033
    vertex 43.30375430492099 6.441154273188011 12.29254320565031
    vertex 43.73788000655372 6.261333512679677 12.292421062575299
  endloop
endfacet
facet normal -0.00035539471439834645 0.0 -0.9999999368472965
  outer loop
    vertex 49.003754269298916 9.357085276723613e-20 12.29093948691033
    vertex 43.73788000655372 6.261333512679677 12.292421062575299
    vertex 44.20375426929892 6.2 12.292289986910333
  endloop
endfacet
facet normal -0.00035539471439834645 0.0 -0.9999999368472965
  outer loop
    vertex 49.003754269298916 9.357085276723613e-20 12.29093948691033
    vertex 44.20375426929892 6.2 12.292289986910333
    vertex 44.669628532044115 6.261333512679676 12.292158911245366
  endloop
endfacet
facet normal -0.00035539471439834645 0.0 -0.9999999368472965
  outer loop
    vertex 49.003754269298916 9.357085276723613e-20 12.29093948691033
    vertex 44.669628532044115 6.261333512679676 12.292158911245366
    vertex 45.103754233676845 6.441154273188009 12.292036768170355
  endloop
endfacet
facet normal -0.00035539471439834645 0.0 -0.9999999368472965
  outer loop
    vertex 49.003754269298916 9.357085276723613e-20 12.29093948691033
    vertex 45.103754233676845 6.441154273188009 12.292036768170355
    vertex 45.127930872484235 6.459705661357804 12.29202996597229
  endloop
endfacet
facet normal -0.00035539471439834645 0.0 -0.9999999368472965
  outer loop
    vertex 49.003754269298916 9.357085276723613e-20 12.29093948691033
    vertex 45.127930872484235 6.459705661357804 12.29202996597229
    vertex 45.476546425057485 6.727207793864213 12.291931881534008
  endloop
endfacet
facet normal -0.00035539471439834645 0.0 -0.9999999368472965
  outer loop
    vertex 49.003754269298916 9.357085276723613e-20 12.29093948691033
    vertex 45.476546425057485 6.727207793864213 12.291931881534008
    vertex 45.76259993441167 7.099999999999998 12.29185139918726
  endloop
endfacet
facet normal -0.00035539471439834645 0.0 -0.9999999368472965
  outer loop
    vertex 49.003754269298916 9.357085276723613e-20 12.29093948691033
    vertex 45.76259993441167 7.099999999999998 12.29185139918726
    vertex 45.94242068780268 7.534125718815461 12.291800805869041
  endloop
endfacet
facet normal -0.00035539471439834645 0.0 -0.9999999368472965
  outer loop
    vertex 49.003754269298916 9.357085276723613e-20 12.29093948691033
    vertex 45.94242068780268 7.534125718815461 12.291800805869041
    vertex 46.00375419805478 7.999999999999999 12.291783549430377
  endloop
endfacet
facet normal -0.00035539471439834645 0.0 -0.9999999368472965
  outer loop
    vertex 49.003754269298916 9.357085276723613e-20 12.29093948691033
    vertex 46.00375419805478 7.999999999999999 12.291783549430377
    vertex 49.003754269298916 15.999999999999998 12.29093948691033
  endloop
endfacet
facet normal 0.9999999368472965 0.0 -0.0003553947143983465
  outer loop
    vertex 49.003754269298916 15.999999999999998 12.29093948691033
    vertex 49.0041436518973 9.357085276723613e-20 14.290939466222689
    vertex 49.003754269298916 9.357085276723613e-20 12.29093948691033
  endloop
endfacet
facet normal 0.9999999368472965 0.0 -0.0003553947143983465
  outer loop
    vertex 49.0041436518973 9.357085276723613e-20 14.290939466222689
    vertex 49.003754269298916 15.999999999999998 12.29093948691033
    vertex 49.0041436518973 15.999999999999998 14.290939466222689
  endloop
endfacet
facet normal 0.6087613916140818 -0.7933533394853184 -0.00021635059457255154
  outer loop
    vertex 43.30414368751937 9.55884572681199 14.29254318496267
    vertex 43.2795776661136 9.540294338642193 12.292550007848375
    vertex 43.30375430492099 9.55884572681199 12.29254320565031
  endloop
endfacet
facet normal 0.6087613916140818 -0.7933533394853184 -0.00021635059457255154
  outer loop
    vertex 43.2795776661136 9.540294338642193 12.292550007848375
    vertex 43.30414368751937 9.55884572681199 14.29254318496267
    vertex 43.27996704871199 9.540294338642193 14.292549987160733
  endloop
endfacet
facet normal 0.6087613916140324 -0.7933533394853564 -0.00021635059457253398
  outer loop
    vertex 43.27996704871199 9.540294338642193 14.292549987160733
    vertex 42.93096211354035 9.272792206135785 12.292648092286656
    vertex 43.2795776661136 9.540294338642193 12.292550007848375
  endloop
endfacet
facet normal 0.6087613916140324 -0.7933533394853564 -0.00021635059457253398
  outer loop
    vertex 42.93096211354035 9.272792206135785 12.292648092286656
    vertex 43.27996704871199 9.540294338642193 14.292549987160733
    vertex 42.93135149613874 9.272792206135785 14.292648071599015
  endloop
endfacet
facet normal 0.7933532909947054 -0.6087614279584795 -0.00028195358407618275
  outer loop
    vertex 42.93096211354035 9.272792206135785 12.292648092286656
    vertex 42.64529798678455 8.899999999999999 14.292728553945762
    vertex 42.64490860418617 8.899999999999999 12.292728574633404
  endloop
endfacet
facet normal 0.7933532909947054 -0.6087614279584795 -0.00028195358407618275
  outer loop
    vertex 42.64529798678455 8.899999999999999 14.292728553945762
    vertex 42.93096211354035 9.272792206135785 12.292648092286656
    vertex 42.93135149613874 9.272792206135785 14.292648071599015
  endloop
endfacet
facet normal 0.9238794745366529 -0.38268343146976336 -0.00032834190272712705
  outer loop
    vertex 42.64490860418617 8.899999999999999 12.292728574633404
    vertex 42.46547723339354 8.465874281184536 14.292779147263982
    vertex 42.46508785079516 8.465874281184536 12.292779167951624
  endloop
endfacet
facet normal 0.9238794745366529 -0.38268343146976336 -0.00032834190272712705
  outer loop
    vertex 42.46547723339354 8.465874281184536 14.292779147263982
    vertex 42.64490860418617 8.899999999999999 12.292728574633404
    vertex 42.64529798678455 8.899999999999999 14.292728553945762
  endloop
endfacet
facet normal 0.9914447988076855 -0.13052619186838 -0.0003523542633661079
  outer loop
    vertex 42.46508785079516 8.465874281184536 12.292779167951624
    vertex 42.404143723141445 7.999999999999999 14.292796403702647
    vertex 42.40375434054307 7.999999999999999 12.29279642439029
  endloop
endfacet
facet normal 0.9914447988076855 -0.13052619186838 -0.0003523542633661079
  outer loop
    vertex 42.404143723141445 7.999999999999999 14.292796403702647
    vertex 42.46508785079516 8.465874281184536 12.292779167951624
    vertex 42.46547723339354 8.465874281184536 14.292779147263982
  endloop
endfacet
facet normal 0.9914447988076855 0.13052619186838 -0.0003523542633661079
  outer loop
    vertex 42.40375434054307 7.999999999999999 12.29279642439029
    vertex 42.46547723339354 7.534125718815462 14.292779147263982
    vertex 42.46508785079516 7.534125718815462 12.292779167951624
  endloop
endfacet
facet normal 0.9914447988076855 0.13052619186838 -0.0003523542633661079
  outer loop
    vertex 42.46547723339354 7.534125718815462 14.292779147263982
    vertex 42.40375434054307 7.999999999999999 12.29279642439029
    vertex 42.404143723141445 7.999999999999999 14.292796403702647
  endloop
endfacet
facet normal 0.9238794745366529 0.38268343146976336 -0.00032834190272712705
  outer loop
    vertex 42.46508785079516 7.534125718815462 12.292779167951624
    vertex 42.64529798678455 7.1 14.292728553945762
    vertex 42.64490860418617 7.1 12.292728574633404
  endloop
endfacet
facet normal 0.9238794745366529 0.38268343146976336 -0.00032834190272712705
  outer loop
    vertex 42.64529798678455 7.1 14.292728553945762
    vertex 42.46508785079516 7.534125718815462 12.292779167951624
    vertex 42.46547723339354 7.534125718815462 14.292779147263982
  endloop
endfacet
facet normal 0.7933532909947054 0.6087614279584795 -0.00028195358407618275
  outer loop
    vertex 42.64490860418617 7.1 12.292728574633404
    vertex 42.93135149613874 6.727207793864213 14.292648071599015
    vertex 42.93096211354035 6.727207793864213 12.292648092286656
  endloop
endfacet
facet normal 0.7933532909947054 0.6087614279584795 -0.00028195358407618275
  outer loop
    vertex 42.93135149613874 6.727207793864213 14.292648071599015
    vertex 42.64490860418617 7.1 12.292728574633404
    vertex 42.64529798678455 7.1 14.292728553945762
  endloop
endfacet
facet normal 0.6087613916140338 0.7933533394853554 -0.00021635059457253446
  outer loop
    vertex 42.93096211354035 6.727207793864213 12.292648092286656
    vertex 43.30414368751937 6.441154273188011 14.29254318496267
    vertex 43.30375430492099 6.441154273188011 12.29254320565031
  endloop
endfacet
facet normal 0.6087613916140338 0.7933533394853554 -0.00021635059457253446
  outer loop
    vertex 43.30414368751937 6.441154273188011 14.29254318496267
    vertex 42.93096211354035 6.727207793864213 12.292648092286656
    vertex 42.93135149613874 6.727207793864213 14.292648071599015
  endloop
endfacet
facet normal 0.3826834090929191 0.923879532140432 -0.000136003669468563
  outer loop
    vertex 43.30375430492099 6.441154273188011 12.29254320565031
    vertex 43.73826938915211 6.261333512679677 14.292421041887657
    vertex 43.73788000655372 6.261333512679677 12.292421062575299
  endloop
endfacet
facet normal 0.3826834090929191 0.923879532140432 -0.000136003669468563
  outer loop
    vertex 43.73826938915211 6.261333512679677 14.292421041887657
    vertex 43.30375430492099 6.441154273188011 12.29254320565031
    vertex 43.30414368751937 6.441154273188011 14.29254318496267
  endloop
endfacet
facet normal 0.13052618432864738 0.9914448613275112 -4.638831893053333e-05
  outer loop
    vertex 43.73788000655372 6.261333512679677 12.292421062575299
    vertex 44.204143651897304 6.2 14.292289966222691
    vertex 44.20375426929892 6.2 12.292289986910333
  endloop
endfacet
facet normal 0.13052618432864738 0.9914448613275112 -4.638831893053333e-05
  outer loop
    vertex 44.204143651897304 6.2 14.292289966222691
    vertex 43.73788000655372 6.261333512679677 12.292421062575299
    vertex 43.73826938915211 6.261333512679677 14.292421041887657
  endloop
endfacet
facet normal -0.13052618432864593 0.9914448613275115 4.6388318930532805e-05
  outer loop
    vertex 44.20375426929892 6.2 12.292289986910333
    vertex 44.6700179146425 6.261333512679676 14.292158890557724
    vertex 44.669628532044115 6.261333512679676 12.292158911245366
  endloop
endfacet
facet normal -0.13052618432864593 0.9914448613275115 4.6388318930532805e-05
  outer loop
    vertex 44.6700179146425 6.261333512679676 14.292158890557724
    vertex 44.20375426929892 6.2 12.292289986910333
    vertex 44.204143651897304 6.2 14.292289966222691
  endloop
endfacet
facet normal -0.3826834090929179 0.9238795321404326 0.00013600366946856256
  outer loop
    vertex 44.669628532044115 6.261333512679676 12.292158911245366
    vertex 45.10414361627523 6.441154273188009 14.292036747482713
    vertex 45.103754233676845 6.441154273188009 12.292036768170355
  endloop
endfacet
facet normal -0.3826834090929179 0.9238795321404326 0.00013600366946856256
  outer loop
    vertex 45.10414361627523 6.441154273188009 14.292036747482713
    vertex 44.669628532044115 6.261333512679676 12.292158911245366
    vertex 44.6700179146425 6.261333512679676 14.292158890557724
  endloop
endfacet
facet normal -0.6087613916140235 0.793353339485363 0.0002163505945725308
  outer loop
    vertex 45.103754233676845 6.441154273188009 12.292036768170355
    vertex 45.12832025508262 6.459705661357804 14.292029945284648
    vertex 45.127930872484235 6.459705661357804 12.29202996597229
  endloop
endfacet
facet normal -0.6087613916140235 0.793353339485363 0.0002163505945725308
  outer loop
    vertex 45.12832025508262 6.459705661357804 14.292029945284648
    vertex 45.103754233676845 6.441154273188009 12.292036768170355
    vertex 45.10414361627523 6.441154273188009 14.292036747482713
  endloop
endfacet
facet normal -0.6087613916140364 0.7933533394853534 0.00021635059457253544
  outer loop
    vertex 45.127930872484235 6.459705661357804 12.29202996597229
    vertex 45.47693580765587 6.727207793864213 14.291931860846367
    vertex 45.476546425057485 6.727207793864213 12.291931881534008
  endloop
endfacet
facet normal -0.6087613916140364 0.7933533394853534 0.00021635059457253544
  outer loop
    vertex 45.47693580765587 6.727207793864213 14.291931860846367
    vertex 45.127930872484235 6.459705661357804 12.29202996597229
    vertex 45.12832025508262 6.459705661357804 14.292029945284648
  endloop
endfacet
facet normal -0.7933532909947042 0.6087614279584809 0.00028195358407618227
  outer loop
    vertex 45.76298931701005 7.099999999999998 14.291851378499619
    vertex 45.476546425057485 6.727207793864213 12.291931881534008
    vertex 45.47693580765587 6.727207793864213 14.291931860846367
  endloop
endfacet
facet normal -0.7933532909947042 0.6087614279584809 0.00028195358407618227
  outer loop
    vertex 45.476546425057485 6.727207793864213 12.291931881534008
    vertex 45.76298931701005 7.099999999999998 14.291851378499619
    vertex 45.76259993441167 7.099999999999998 12.29185139918726
  endloop
endfacet
facet normal -0.9238794745366529 0.38268343146976336 0.00032834190272712705
  outer loop
    vertex 45.942810070401066 7.534125718815461 14.2918007851814
    vertex 45.76259993441167 7.099999999999998 12.29185139918726
    vertex 45.76298931701005 7.099999999999998 14.291851378499619
  endloop
endfacet
facet normal -0.9238794745366529 0.38268343146976336 0.00032834190272712705
  outer loop
    vertex 45.76259993441167 7.099999999999998 12.29185139918726
    vertex 45.942810070401066 7.534125718815461 14.2918007851814
    vertex 45.94242068780268 7.534125718815461 12.291800805869041
  endloop
endfacet
facet normal -0.9914447988076855 0.1305261918683796 0.0003523542633661079
  outer loop
    vertex 46.00414358065316 7.999999999999999 14.291783528742737
    vertex 45.94242068780268 7.534125718815461 12.291800805869041
    vertex 45.942810070401066 7.534125718815461 14.2918007851814
  endloop
endfacet
facet normal -0.9914447988076855 0.1305261918683796 0.0003523542633661079
  outer loop
    vertex 45.94242068780268 7.534125718815461 12.291800805869041
    vertex 46.00414358065316 7.999999999999999 14.291783528742737
    vertex 46.00375419805478 7.999999999999999 12.291783549430377
  endloop
endfacet
facet normal -0.9914447988076855 -0.13052619186838038 0.0003523542633661078
  outer loop
    vertex 45.942810070401066 8.465874281184535 14.2918007851814
    vertex 46.00375419805478 7.999999999999999 12.291783549430377
    vertex 46.00414358065316 7.999999999999999 14.291783528742737
  endloop
endfacet
facet normal -0.9914447988076855 -0.13052619186838038 0.0003523542633661078
  outer loop
    vertex 46.00375419805478 7.999999999999999 12.291783549430377
    vertex 45.942810070401066 8.465874281184535 14.2918007851814
    vertex 45.94242068780268 8.465874281184535 12.291800805869041
  endloop
endfacet
facet normal -0.9238794745366529 -0.38268343146976336 0.00032834190272712705
  outer loop
    vertex 45.76298931701005 8.899999999999999 14.291851378499619
    vertex 45.94242068780268 8.465874281184535 12.291800805869041
    vertex 45.942810070401066 8.465874281184535 14.2918007851814
  endloop
endfacet
facet normal -0.9238794745366529 -0.38268343146976336 0.00032834190272712705
  outer loop
    vertex 45.94242068780268 8.465874281184535 12.291800805869041
    vertex 45.76298931701005 8.899999999999999 14.291851378499619
    vertex 45.76259993441167 8.899999999999999 12.29185139918726
  endloop
endfacet
facet normal -0.7933532909947054 -0.6087614279584795 0.00028195358407618275
  outer loop
    vertex 45.47693580765587 9.272792206135783 14.291931860846367
    vertex 45.76259993441167 8.899999999999999 12.29185139918726
    vertex 45.76298931701005 8.899999999999999 14.291851378499619
  endloop
endfacet
facet normal -0.7933532909947054 -0.6087614279584795 0.00028195358407618275
  outer loop
    vertex 45.76259993441167 8.899999999999999 12.29185139918726
    vertex 45.47693580765587 9.272792206135783 14.291931860846367
    vertex 45.476546425057485 9.272792206135783 12.291931881534008
  endloop
endfacet
facet normal -0.6087613916140355 -0.7933533394853538 0.00021635059457253511
  outer loop
    vertex 45.47693580765587 9.272792206135783 14.291931860846367
    vertex 45.103754233676845 9.558845726811988 12.292036768170355
    vertex 45.476546425057485 9.272792206135783 12.291931881534008
  endloop
endfacet
facet normal -0.6087613916140355 -0.7933533394853538 0.00021635059457253511
  outer loop
    vertex 45.103754233676845 9.558845726811988 12.292036768170355
    vertex 45.47693580765587 9.272792206135783 14.291931860846367
    vertex 45.10414361627523 9.558845726811988 14.292036747482713
  endloop
endfacet
facet normal -0.3826834090929204 -0.9238795321404315 0.00013600366946856348
  outer loop
    vertex 45.10414361627523 9.558845726811988 14.292036747482713
    vertex 44.669628532044115 9.738666487320323 12.292158911245366
    vertex 45.103754233676845 9.558845726811988 12.292036768170355
  endloop
endfacet
facet normal -0.3826834090929204 -0.9238795321404315 0.00013600366946856348
  outer loop
    vertex 44.669628532044115 9.738666487320323 12.292158911245366
    vertex 45.10414361627523 9.558845726811988 14.292036747482713
    vertex 44.6700179146425 9.738666487320323 14.292158890557724
  endloop
endfacet
facet normal -0.13052618432864593 -0.9914448613275115 4.6388318930532805e-05
  outer loop
    vertex 44.6700179146425 9.738666487320323 14.292158890557724
    vertex 44.20375426929892 9.799999999999999 12.292289986910333
    vertex 44.669628532044115 9.738666487320323 12.292158911245366
  endloop
endfacet
facet normal -0.13052618432864593 -0.9914448613275115 4.6388318930532805e-05
  outer loop
    vertex 44.20375426929892 9.799999999999999 12.292289986910333
    vertex 44.6700179146425 9.738666487320323 14.292158890557724
    vertex 44.204143651897304 9.799999999999999 14.292289966222691
  endloop
endfacet
facet normal 0.13052618432864593 -0.9914448613275115 -4.6388318930532805e-05
  outer loop
    vertex 44.204143651897304 9.799999999999999 14.292289966222691
    vertex 43.73788000655372 9.738666487320323 12.292421062575299
    vertex 44.20375426929892 9.799999999999999 12.292289986910333
  endloop
endfacet
facet normal 0.13052618432864593 -0.9914448613275115 -4.6388318930532805e-05
  outer loop
    vertex 43.73788000655372 9.738666487320323 12.292421062575299
    vertex 44.204143651897304 9.799999999999999 14.292289966222691
    vertex 43.73826938915211 9.738666487320323 14.292421041887657
  endloop
endfacet
facet normal 0.3826834090929179 -0.9238795321404326 -0.00013600366946856256
  outer loop
    vertex 43.73826938915211 9.738666487320323 14.292421041887657
    vertex 43.30375430492099 9.55884572681199 12.29254320565031
    vertex 43.73788000655372 9.738666487320323 12.292421062575299
  endloop
endfacet
facet normal 0.3826834090929179 -0.9238795321404326 -0.00013600366946856256
  outer loop
    vertex 43.30375430492099 9.55884572681199 12.29254320565031
    vertex 43.73826938915211 9.738666487320323 14.292421041887657
    vertex 43.30414368751937 9.55884572681199 14.29254318496267
  endloop
endfacet
facet normal -1.0 0.0 0.0
  outer loop
    vertex -1.9999999999999998 15.999999999999998 8.3
    vertex -1.9999999999999998 0.0 6.300000000000001
    vertex -1.9999999999999998 0.0 8.3
  endloop
endfacet
facet normal -1.0 0.0 0.0
  outer loop
    vertex -1.9999999999999998 0.0 6.300000000000001
    vertex -1.9999999999999998 15.999999999999998 8.3
    vertex -1.9999999999999998 15.999999999999998 6.300000000000001
  endloop
endfacet
facet normal -0.0 1.0 -0.0
  outer loop
    vertex -1.9999999999999998 15.999999999999998 6.300000000000001
    vertex 0.0 15.999999999999998 8.3
    vertex 1.762479051592436e-16 15.999999999999998 5.2042553191489365
  endloop
endfacet
facet normal -0.0 1.0 -0.0
  outer loop
    vertex 0.0 15.999999999999998 8.3
    vertex -1.9999999999999998 15.999999999999998 6.300000000000001
    vertex -1.9999999999999998 15.999999999999998 8.3
  endloop
endfacet
facet normal 0.0 0.0 1.0
  outer loop
    vertex 0.0 0.0 16.299999999999997
    vertex -1.9999999999999998 15.999999999999998 16.299999999999997
    vertex -1.9999999999999998 0.0 16.299999999999997
  endloop
endfacet
facet normal 0.0 0.0 1.0
  outer loop
    vertex -1.9999999999999998 15.999999999999998 16.299999999999997
    vertex 0.0 0.0 16.299999999999997
    vertex 0.0 15.999999999999998 16.299999999999997
  endloop
endfacet
facet normal 1.0 0.0 -0.0
  outer loop
    vertex 0.0 0.0 8.3
    vertex 0.0 6.585786437626905 10.885786437626905
    vertex 0.0 0.0 16.299999999999997
  endloop
endfacet
facet normal 1.0 0.0 -0.0
  outer loop
    vertex 0.0 6.585786437626905 10.885786437626905
    vertex 0.0 0.0 8.3
    vertex 0.0 7.0 10.567949192431124
  endloop
endfacet
facet normal 1.0 0.0 -0.0
  outer loop
    vertex 0.0 7.0 10.567949192431124
    vertex 0.0 0.0 8.3
    vertex 0.0 7.4823619097949585 10.368148347421865
  endloop
endfacet
facet normal 1.0 0.0 -0.0
  outer loop
    vertex 0.0 7.4823619097949585 10.368148347421865
    vertex 0.0 0.0 8.3
    vertex 0.0 15.999999999999998 8.3
  endloop
endfacet
facet normal 1.0 0.0 -0.0
  outer loop
    vertex 0.0 0.0 16.299999999999997
    vertex 0.0 6.585786437626905 10.885786437626905
    vertex 0.0 6.267949192431122 11.3
  endloop
endfacet
facet normal 1.0 0.0 -0.0
  outer loop
    vertex 0.0 0.0 16.299999999999997
    vertex 0.0 6.267949192431122 11.3
    vertex 0.0 6.068148347421864 11.78236190979496
  endloop
endfacet
facet normal 1.0 0.0 -0.0
  outer loop
    vertex 0.0 0.0 16.299999999999997
    vertex 0.0 6.068148347421864 11.78236190979496
    vertex 0.0 6.0 12.3
  endloop
endfacet
facet normal 1.0 0.0 -0.0
  outer loop
    vertex 0.0 7.4823619097949585 10.368148347421865
    vertex 0.0 15.999999999999998 8.3
    vertex 0.0 7.999999999999999 10.3
  endloop
endfacet
facet normal 1.0 0.0 -0.0
  outer loop
    vertex 0.0 7.999999999999999 10.3
    vertex 0.0 15.999999999999998 8.3
    vertex 0.0 8.517638090205041 10.368148347421865
  endloop
endfacet
facet normal 1.0 0.0 -0.0
  outer loop
    vertex 0.0 8.517638090205041 10.368148347421865
    vertex 0.0 15.999999999999998 8.3
    vertex 0.0 8.999999999999998 10.567949192431124
  endloop
endfacet
facet normal 1.0 0.0 -0.0
  outer loop
    vertex 0.0 8.999999999999998 10.567949192431124
    vertex 0.0 15.999999999999998 8.3
    vertex 0.0 9.414213562373094 10.885786437626905
  endloop
endfacet
facet normal 1.0 0.0 -0.0
  outer loop
    vertex 0.0 9.414213562373094 10.885786437626905
    vertex 0.0 15.999999999999998 8.3
    vertex 0.0 9.732050807568877 11.299999999999999
  endloop
endfacet
facet normal 1.0 0.0 -0.0
  outer loop
    vertex 0.0 9.732050807568877 11.299999999999999
    vertex 0.0 15.999999999999998 8.3
    vertex 0.0 9.77802362093622 11.410988189531889
  endloop
endfacet
facet normal 1.0 0.0 -0.0
  outer loop
    vertex 0.0 9.77802362093622 11.410988189531889
    vertex 0.0 15.999999999999998 8.3
    vertex 0.0 9.931851652578134 11.782361909794957
  endloop
endfacet
facet normal 1.0 0.0 -0.0
  outer loop
    vertex 0.0 9.931851652578134 11.782361909794957
    vertex 0.0 15.999999999999998 8.3
    vertex 0.0 9.999999999999996 12.3
  endloop
endfacet
facet normal 1.0 0.0 -0.0
  outer loop
    vertex 0.0 0.0 16.299999999999997
    vertex 0.0 7.482361909794959 14.231851652578136
    vertex 0.0 15.999999999999998 16.299999999999997
  endloop
endfacet
facet normal 1.0 0.0 -0.0
  outer loop
    vertex 0.0 7.482361909794959 14.231851652578136
    vertex 0.0 0.0 16.299999999999997
    vertex 0.0 7.000000000000001 14.03205080756888
  endloop
endfacet
facet normal 1.0 0.0 -0.0
  outer loop
    vertex 0.0 7.000000000000001 14.03205080756888
    vertex 0.0 0.0 16.299999999999997
    vertex 0.0 6.585786437626905 13.714213562373097
  endloop
endfacet
facet normal 1.0 0.0 -0.0
  outer loop
    vertex 0.0 6.585786437626905 13.714213562373097
    vertex 0.0 0.0 16.299999999999997
    vertex 0.0 6.267949192431122 13.3
  endloop
endfacet
facet normal 1.0 0.0 -0.0
  outer loop
    vertex 0.0 6.267949192431122 13.3
    vertex 0.0 0.0 16.299999999999997
    vertex 0.0 6.068148347421864 12.817638090205042
  endloop
endfacet
facet normal 1.0 0.0 -0.0
  outer loop
    vertex 0.0 6.068148347421864 12.817638090205042
    vertex 0.0 0.0 16.299999999999997
    vertex 0.0 6.0 12.3
  endloop
endfacet
facet normal 1.0 0.0 -0.0
  outer loop
    vertex 0.0 6.267949192431122 13.3
    vertex 0.0 6.068148347421864 12.817638090205042
    vertex 0.0 6.221976379063778 13.18901181046811
  endloop
endfacet
facet normal 1.0 0.0 -0.0
  outer loop
    vertex 0.0 15.999999999999998 16.299999999999997
    vertex 0.0 7.482361909794959 14.231851652578136
    vertex 0.0 7.999999999999999 14.299999999999999
  endloop
endfacet
facet normal 1.0 0.0 -0.0
  outer loop
    vertex 0.0 15.999999999999998 16.299999999999997
    vertex 0.0 7.999999999999999 14.299999999999999
    vertex 0.0 8.517638090205041 14.231851652578136
  endloop
endfacet
facet normal 1.0 0.0 -0.0
  outer loop
    vertex 0.0 15.999999999999998 16.299999999999997
    vertex 0.0 8.517638090205041 14.231851652578136
    vertex 0.0 8.999999999999998 14.032050807568876
  endloop
endfacet
facet normal 1.0 0.0 -0.0
  outer loop
    vertex 0.0 15.999999999999998 16.299999999999997
    vertex 0.0 8.999999999999998 14.032050807568876
    vertex 0.0 9.414213562373094 13.714213562373093
  endloop
endfacet
facet normal 1.0 0.0 -0.0
  outer loop
    vertex 0.0 15.999999999999998 16.299999999999997
    vertex 0.0 9.414213562373094 13.714213562373093
    vertex 0.0 9.732050807568877 13.299999999999999
  endloop
endfacet
facet normal 1.0 0.0 -0.0
  outer loop
    vertex 0.0 15.999999999999998 16.299999999999997
    vertex 0.0 9.732050807568877 13.299999999999999
    vertex 0.0 9.931851652578134 12.81763809020504
  endloop
endfacet
facet normal 1.0 0.0 -0.0
  outer loop
    vertex 0.0 15.999999999999998 16.299999999999997
    vertex 0.0 9.931851652578134 12.81763809020504
    vertex 0.0 9.999999999999996 12.3
  endloop
endfacet
facet normal 1.0 0.0 -0.0
  outer loop
    vertex 0.0 15.999999999999998 16.299999999999997
    vertex 0.0 9.999999999999996 12.3
    vertex 0.0 15.999999999999998 8.3
  endloop
endfacet
facet normal 0.0 -1.0 0.0
  outer loop
    vertex 0.0 0.0 16.299999999999997
    vertex -1.9999999999999998 0.0 8.3
    vertex 0.0 0.0 8.3
  endloop
endfacet
facet normal 0.0 -1.0 0.0
  outer loop
    vertex -1.9999999999999998 0.0 8.3
    vertex 0.0 0.0 16.299999999999997
    vertex -1.9999999999999998 0.0 16.299999999999997
  endloop
endfacet
facet normal -1.0 0.0 0.0
  outer loop
    vertex -1.9999999999999998 0.0 16.299999999999997
    vertex -1.9999999999999998 5.294613457990256 14.504790765265849
    vertex -1.9999999999999998 0.0 8.3
  endloop
endfacet
facet normal -1.0 0.0 0.0
  outer loop
    vertex -1.9999999999999998 5.294613457990256 14.504790765265849
    vertex -1.9999999999999998 0.0 16.299999999999997
    vertex -1.9999999999999998 5.957439109494875 15.129869903170093
  endloop
endfacet
facet normal -1.0 0.0 0.0
  outer loop
    vertex -1.9999999999999998 5.957439109494875 15.129869903170093
    vertex -1.9999999999999998 0.0 16.299999999999997
    vertex -1.9999999999999998 6.759461910195947 15.562098083754428
  endloop
endfacet
facet normal -1.0 0.0 0.0
  outer loop
    vertex -1.9999999999999998 6.759461910195947 15.562098083754428
    vertex -1.9999999999999998 0.0 16.299999999999997
    vertex -1.9999999999999998 7.646025331631043 15.772019670802871
  endloop
endfacet
facet normal -1.0 0.0 0.0
  outer loop
    vertex -1.9999999999999998 7.646025331631043 15.772019670802871
    vertex -1.9999999999999998 0.0 16.299999999999997
    vertex -1.9999999999999998 15.999999999999998 16.299999999999997
  endloop
endfacet
facet normal -1.0 0.0 0.0
  outer loop
    vertex -1.9999999999999998 0.0 8.3
    vertex -1.9999999999999998 5.294613457990256 14.504790765265849
    vertex -1.9999999999999998 4.8161554284609505 13.729458780297746
  endloop
endfacet
facet normal -1.0 0.0 0.0
  outer loop
    vertex -1.9999999999999998 0.0 8.3
    vertex -1.9999999999999998 4.8161554284609505 13.729458780297746
    vertex -1.9999999999999998 4.554671144930102 12.856711541744684
  endloop
endfacet
facet normal -1.0 0.0 0.0
  outer loop
    vertex -1.9999999999999998 0.0 8.3
    vertex -1.9999999999999998 4.554671144930102 12.856711541744684
    vertex -1.9999999999999998 4.527980329197128 11.946025331631045
  endloop
endfacet
facet normal -1.0 0.0 0.0
  outer loop
    vertex -1.9999999999999998 4.8161554284609505 13.729458780297746
    vertex -1.9999999999999998 5.294613457990256 14.504790765265849
    vertex -1.9999999999999998 4.892771786392042 13.853614106803978
  endloop
endfacet
facet normal -1.0 0.0 0.0
  outer loop
    vertex -1.9999999999999998 7.646025331631043 15.772019670802871
    vertex -1.9999999999999998 15.999999999999998 16.299999999999997
    vertex -1.9999999999999998 8.556711541744685 15.745328855069898
  endloop
endfacet
facet normal -1.0 0.0 0.0
  outer loop
    vertex -1.9999999999999998 8.556711541744685 15.745328855069898
    vertex -1.9999999999999998 15.999999999999998 16.299999999999997
    vertex -1.9999999999999998 9.429458780297747 15.483844571539048
  endloop
endfacet
facet normal -1.0 0.0 0.0
  outer loop
    vertex -1.9999999999999998 9.429458780297747 15.483844571539048
    vertex -1.9999999999999998 15.999999999999998 16.299999999999997
    vertex -1.9999999999999998 10.204790765265844 15.005386542009742
  endloop
endfacet
facet normal -1.0 0.0 0.0
  outer loop
    vertex -1.9999999999999998 10.204790765265844 15.005386542009742
    vertex -1.9999999999999998 15.999999999999998 16.299999999999997
    vertex -1.9999999999999998 10.829869903170092 14.342560890505121
  endloop
endfacet
facet normal -1.0 0.0 0.0
  outer loop
    vertex -1.9999999999999998 10.829869903170092 14.342560890505121
    vertex -1.9999999999999998 15.999999999999998 16.299999999999997
    vertex -1.9999999999999998 11.262098083754427 13.54053808980405
  endloop
endfacet
facet normal -1.0 0.0 0.0
  outer loop
    vertex -1.9999999999999998 11.262098083754427 13.54053808980405
    vertex -1.9999999999999998 15.999999999999998 16.299999999999997
    vertex -1.9999999999999998 11.472019670802872 12.653974668368956
  endloop
endfacet
facet normal -1.0 0.0 0.0
  outer loop
    vertex -1.9999999999999998 0.0 8.3
    vertex -1.9999999999999998 7.443288458255316 8.8546711449301
    vertex -1.9999999999999998 15.999999999999998 8.3
  endloop
endfacet
facet normal -1.0 0.0 0.0
  outer loop
    vertex -1.9999999999999998 7.443288458255316 8.8546711449301
    vertex -1.9999999999999998 0.0 8.3
    vertex -1.9999999999999998 6.570541219702253 9.11615542846095
  endloop
endfacet
facet normal -1.0 0.0 0.0
  outer loop
    vertex -1.9999999999999998 6.570541219702253 9.11615542846095
    vertex -1.9999999999999998 0.0 8.3
    vertex -1.9999999999999998 5.795209234734154 9.594613457990254
  endloop
endfacet
facet normal -1.0 0.0 0.0
  outer loop
    vertex -1.9999999999999998 5.795209234734154 9.594613457990254
    vertex -1.9999999999999998 0.0 8.3
    vertex -1.9999999999999998 5.170130096829908 10.257439109494873
  endloop
endfacet
facet normal -1.0 0.0 0.0
  outer loop
    vertex -1.9999999999999998 5.170130096829908 10.257439109494873
    vertex -1.9999999999999998 0.0 8.3
    vertex -1.9999999999999998 4.737901916245572 11.059461910195946
  endloop
endfacet
facet normal -1.0 0.0 0.0
  outer loop
    vertex -1.9999999999999998 4.737901916245572 11.059461910195946
    vertex -1.9999999999999998 0.0 8.3
    vertex -1.9999999999999998 4.527980329197128 11.946025331631045
  endloop
endfacet
facet normal -1.0 0.0 0.0
  outer loop
    vertex -1.9999999999999998 15.999999999999998 8.3
    vertex -1.9999999999999998 7.443288458255316 8.8546711449301
    vertex -1.9999999999999998 8.353974668368958 8.827980329197127
  endloop
endfacet
facet normal -1.0 0.0 0.0
  outer loop
    vertex -1.9999999999999998 15.999999999999998 8.3
    vertex -1.9999999999999998 8.353974668368958 8.827980329197127
    vertex -1.9999999999999998 9.240538089804051 9.03790191624557
  endloop
endfacet
facet normal -1.0 0.0 0.0
  outer loop
    vertex -1.9999999999999998 15.999999999999998 8.3
    vertex -1.9999999999999998 9.240538089804051 9.03790191624557
    vertex -1.9999999999999998 10.042560890505124 9.470130096829905
  endloop
endfacet
facet normal -1.0 0.0 0.0
  outer loop
    vertex -1.9999999999999998 15.999999999999998 8.3
    vertex -1.9999999999999998 10.042560890505124 9.470130096829905
    vertex -1.9999999999999998 10.705386542009744 10.09520923473415
  endloop
endfacet
facet normal -1.0 0.0 0.0
  outer loop
    vertex -1.9999999999999998 15.999999999999998 8.3
    vertex -1.9999999999999998 10.705386542009744 10.09520923473415
    vertex -1.9999999999999998 11.107228213607959 10.74638589319602
  endloop
endfacet
facet normal -1.0 0.0 0.0
  outer loop
    vertex -1.9999999999999998 15.999999999999998 8.3
    vertex -1.9999999999999998 11.107228213607959 10.74638589319602
    vertex -1.9999999999999998 11.183844571539048 10.870541219702252
  endloop
endfacet
facet normal -1.0 0.0 0.0
  outer loop
    vertex -1.9999999999999998 15.999999999999998 8.3
    vertex -1.9999999999999998 11.183844571539048 10.870541219702252
    vertex -1.9999999999999998 11.445328855069898 11.743288458255314
  endloop
endfacet
facet normal -1.0 0.0 0.0
  outer loop
    vertex -1.9999999999999998 15.999999999999998 8.3
    vertex -1.9999999999999998 11.445328855069898 11.743288458255314
    vertex -1.9999999999999998 11.472019670802872 12.653974668368956
  endloop
endfacet
facet normal -1.0 0.0 0.0
  outer loop
    vertex -1.9999999999999998 15.999999999999998 8.3
    vertex -1.9999999999999998 11.472019670802872 12.653974668368956
    vertex -1.9999999999999998 15.999999999999998 16.299999999999997
  endloop
endfacet
facet normal -0.0 1.0 -0.0
  outer loop
    vertex -1.9999999999999998 15.999999999999998 16.299999999999997
    vertex 0.0 15.999999999999998 8.3
    vertex -1.9999999999999998 15.999999999999998 8.3
  endloop
endfacet
facet normal -0.0 1.0 -0.0
  outer loop
    vertex 0.0 15.999999999999998 8.3
    vertex -1.9999999999999998 15.999999999999998 16.299999999999997
    vertex 0.0 15.999999999999998 16.299999999999997
  endloop
endfacet
facet normal -0.8286207059659001 0.4764018999984079 -0.2939880190117962
  outer loop
    vertex -1.0000000000000009 6.221976379063778 13.18901181046811
    vertex -1.9999999999999998 4.8161554284609505 13.729458780297746
    vertex -1.9999999999999998 4.892771786392042 13.853614106803978
  endloop
endfacet
facet normal -0.8290019379775007 0.5166756838443566 -0.21401407559671087
  outer loop
    vertex -1.0000000000000009 6.267949192431122 13.3
    vertex -1.0000000000000009 6.221976379063778 13.18901181046811
    vertex -1.9999999999999998 4.892771786392042 13.853614106803978
  endloop
endfacet
facet normal -0.825213486733789 0.4806658719584444 -0.2966193197468616
  outer loop
    vertex -1.0000000000000009 6.267949192431122 13.3
    vertex -1.9999999999999998 4.892771786392042 13.853614106803978
    vertex -1.9999999999999998 5.294613457990256 14.504790765265849
  endloop
endfacet
facet normal -0.8330073540651883 0.4389321893850611 -0.33680451480784973
  outer loop
    vertex -1.0000000000000009 6.585786437626905 13.714213562373097
    vertex -1.0000000000000009 6.267949192431122 13.3
    vertex -1.9999999999999998 5.294613457990256 14.504790765265849
  endloop
endfacet
facet normal -0.8252134867337894 0.3875168504445721 -0.4109177435134448
  outer loop
    vertex -1.0000000000000009 6.585786437626905 13.714213562373097
    vertex -1.9999999999999998 5.294613457990256 14.504790765265849
    vertex -1.9999999999999998 5.957439109494875 15.129869903170093
  endloop
endfacet
facet normal -0.8330073540651881 0.3368045148078494 -0.4389321893850613
  outer loop
    vertex -1.0000000000000009 7.000000000000001 14.03205080756888
    vertex -1.0000000000000009 6.585786437626905 13.714213562373097
    vertex -1.9999999999999998 5.957439109494875 15.129869903170093
  endloop
endfacet
facet normal -0.8252134867337894 0.2679591959747788 -0.49721280213326413
  outer loop
    vertex -1.0000000000000009 7.000000000000001 14.03205080756888
    vertex -1.9999999999999998 5.957439109494875 15.129869903170093
    vertex -1.9999999999999998 6.759461910195947 15.562098083754428
  endloop
endfacet
facet normal -0.8330073540651884 0.21172416914225842 -0.5111473606254211
  outer loop
    vertex -1.0000000000000009 7.482361909794959 14.231851652578136
    vertex -1.0000000000000009 7.000000000000001 14.03205080756888
    vertex -1.9999999999999998 6.759461910195947 15.562098083754428
  endloop
endfacet
facet normal -0.8252134867337895 0.1301405651228128 -0.5496236299707071
  outer loop
    vertex -1.9999999999999998 7.646025331631043 15.772019670802871
    vertex -1.0000000000000009 7.482361909794959 14.231851652578136
    vertex -1.9999999999999998 6.759461910195947 15.562098083754428
  endloop
endfacet
facet normal -0.8330073540651883 0.07221517124035964 -0.5485286839501098
  outer loop
    vertex -1.0000000000000009 7.999999999999999 14.299999999999999
    vertex -1.0000000000000009 7.482361909794959 14.231851652578136
    vertex -1.9999999999999998 7.646025331631043 15.772019670802871
  endloop
endfacet
facet normal -0.8252134867337895 -0.016546930174820375 -0.5645785157216413
  outer loop
    vertex -1.9999999999999998 8.556711541744685 15.745328855069898
    vertex -1.0000000000000009 7.999999999999999 14.299999999999999
    vertex -1.9999999999999998 7.646025331631043 15.772019670802871
  endloop
endfacet
facet normal -0.8330073540651883 -0.07221517124035903 -0.5485286839501099
  outer loop
    vertex -1.9999999999999998 8.556711541744685 15.745328855069898
    vertex -1.0000000000000009 8.517638090205041 14.231851652578136
    vertex -1.0000000000000009 7.999999999999999 14.299999999999999
  endloop
endfacet
facet normal -0.8252134867337894 -0.16210677952613545 -0.5410583086362569
  outer loop
    vertex -1.9999999999999998 9.429458780297747 15.483844571539048
    vertex -1.0000000000000009 8.517638090205041 14.231851652578136
    vertex -1.9999999999999998 8.556711541744685 15.745328855069898
  endloop
endfacet
facet normal -0.8330073540651883 -0.21172416914226236 -0.5111473606254197
  outer loop
    vertex -1.9999999999999998 9.429458780297747 15.483844571539048
    vertex -1.0000000000000009 8.999999999999998 14.032050807568876
    vertex -1.0000000000000009 8.517638090205041 14.231851652578136
  endloop
endfacet
facet normal -0.8252134867337896 -0.2966193197468635 -0.4806658719584428
  outer loop
    vertex -1.9999999999999998 10.204790765265844 15.005386542009742
    vertex -1.0000000000000009 8.999999999999998 14.032050807568876
    vertex -1.9999999999999998 9.429458780297747 15.483844571539048
  endloop
endfacet
facet normal -0.8330073540651883 -0.3368045148078502 -0.43893218938506096
  outer loop
    vertex -1.9999999999999998 10.204790765265844 15.005386542009742
    vertex -1.0000000000000009 9.414213562373094 13.714213562373093
    vertex -1.0000000000000009 8.999999999999998 14.032050807568876
  endloop
endfacet
facet normal -0.8252134867337894 -0.4109177435134446 -0.3875168504445725
  outer loop
    vertex -1.9999999999999998 10.829869903170092 14.342560890505121
    vertex -1.0000000000000009 9.414213562373094 13.714213562373093
    vertex -1.9999999999999998 10.204790765265844 15.005386542009742
  endloop
endfacet
facet normal -0.8330073540651883 -0.4389321893850609 -0.33680451480784995
  outer loop
    vertex -1.9999999999999998 10.829869903170092 14.342560890505121
    vertex -1.0000000000000009 9.732050807568877 13.299999999999999
    vertex -1.0000000000000009 9.414213562373094 13.714213562373093
  endloop
endfacet
facet normal -0.8252134867337894 -0.497212802133264 -0.267959195974779
  outer loop
    vertex -1.9999999999999998 11.262098083754427 13.54053808980405
    vertex -1.0000000000000009 9.732050807568877 13.299999999999999
    vertex -1.9999999999999998 10.829869903170092 14.342560890505121
  endloop
endfacet
facet normal -0.8330073540651884 -0.5111473606254209 -0.21172416914225883
  outer loop
    vertex -1.9999999999999998 11.262098083754427 13.54053808980405
    vertex -1.0000000000000009 9.931851652578134 12.81763809020504
    vertex -1.0000000000000009 9.732050807568877 13.299999999999999
  endloop
endfacet
facet normal -0.8252134867337896 -0.5496236299707069 -0.1301405651228131
  outer loop
    vertex -1.9999999999999998 11.472019670802872 12.653974668368956
    vertex -1.0000000000000009 9.931851652578134 12.81763809020504
    vertex -1.9999999999999998 11.262098083754427 13.54053808980405
  endloop
endfacet
facet normal -0.8330073540651887 -0.5485286839501097 -0.07221517124035962
  outer loop
    vertex -1.9999999999999998 11.472019670802872 12.653974668368956
    vertex -1.0000000000000009 9.999999999999996 12.3
    vertex -1.0000000000000009 9.931851652578134 12.81763809020504
  endloop
endfacet
facet normal -0.8252134867337898 -0.5645785157216409 0.016546930174820406
  outer loop
    vertex -1.9999999999999998 11.472019670802872 12.653974668368956
    vertex -1.9999999999999998 11.445328855069898 11.743288458255314
    vertex -1.0000000000000009 9.999999999999996 12.3
  endloop
endfacet
facet normal -0.8330073540651887 -0.5485286839501095 0.07221517124035907
  outer loop
    vertex -1.9999999999999998 11.445328855069898 11.743288458255314
    vertex -1.0000000000000009 9.931851652578134 11.782361909794957
    vertex -1.0000000000000009 9.999999999999996 12.3
  endloop
endfacet
facet normal -0.8252134867337897 -0.5410583086362566 0.16210677952613556
  outer loop
    vertex -1.9999999999999998 11.445328855069898 11.743288458255314
    vertex -1.9999999999999998 11.183844571539048 10.870541219702252
    vertex -1.0000000000000009 9.931851652578134 11.782361909794957
  endloop
endfacet
facet normal -0.8330073540651881 -0.5111473606254214 0.21172416914225867
  outer loop
    vertex -1.9999999999999998 11.183844571539048 10.870541219702252
    vertex -1.0000000000000009 9.77802362093622 11.410988189531889
    vertex -1.0000000000000009 9.931851652578134 11.782361909794957
  endloop
endfacet
facet normal -0.8286207059659008 -0.4764018999984137 0.2939880190117857
  outer loop
    vertex -1.9999999999999998 11.183844571539048 10.870541219702252
    vertex -1.9999999999999998 11.107228213607959 10.74638589319602
    vertex -1.0000000000000009 9.77802362093622 11.410988189531889
  endloop
endfacet
facet normal -0.8290019379774999 -0.5166756838443491 0.21401407559673166
  outer loop
    vertex -1.9999999999999998 11.107228213607959 10.74638589319602
    vertex -1.0000000000000009 9.732050807568877 11.299999999999999
    vertex -1.0000000000000009 9.77802362093622 11.410988189531889
  endloop
endfacet
facet normal -0.8252134867337895 -0.4806658719584434 0.2966193197468621
  outer loop
    vertex -1.9999999999999998 11.107228213607959 10.74638589319602
    vertex -1.9999999999999998 10.705386542009744 10.09520923473415
    vertex -1.0000000000000009 9.732050807568877 11.299999999999999
  endloop
endfacet
facet normal -0.8330073540651887 -0.43893218938506073 0.3368045148078494
  outer loop
    vertex -1.9999999999999998 10.705386542009744 10.09520923473415
    vertex -1.0000000000000009 9.414213562373094 10.885786437626905
    vertex -1.0000000000000009 9.732050807568877 11.299999999999999
  endloop
endfacet
facet normal -0.8252134867337896 -0.387516850444572 0.41091774351344446
  outer loop
    vertex -1.9999999999999998 10.705386542009744 10.09520923473415
    vertex -1.9999999999999998 10.042560890505124 9.470130096829905
    vertex -1.0000000000000009 9.414213562373094 10.885786437626905
  endloop
endfacet
facet normal -0.8330073540651884 -0.33680451480784906 0.43893218938506107
  outer loop
    vertex -1.9999999999999998 10.042560890505124 9.470130096829905
    vertex -1.0000000000000009 8.999999999999998 10.567949192431124
    vertex -1.0000000000000009 9.414213562373094 10.885786437626905
  endloop
endfacet
facet normal -0.8252134867337898 -0.26795919597477924 0.4972128021332631
  outer loop
    vertex -1.9999999999999998 10.042560890505124 9.470130096829905
    vertex -1.9999999999999998 9.240538089804051 9.03790191624557
    vertex -1.0000000000000009 8.999999999999998 10.567949192431124
  endloop
endfacet
facet normal -0.8330073540651889 -0.21172416914226022 0.5111473606254199
  outer loop
    vertex -1.9999999999999998 9.240538089804051 9.03790191624557
    vertex -1.0000000000000009 8.517638090205041 10.368148347421865
    vertex -1.0000000000000009 8.999999999999998 10.567949192431124
  endloop
endfacet
facet normal -0.8252134867337898 -0.13014056512281208 0.5496236299707069
  outer loop
    vertex -1.9999999999999998 9.240538089804051 9.03790191624557
    vertex -1.9999999999999998 8.353974668368958 8.827980329197127
    vertex -1.0000000000000009 8.517638090205041 10.368148347421865
  endloop
endfacet
facet normal -0.8330073540651884 -0.07221517124035919 0.5485286839501097
  outer loop
    vertex -1.0000000000000009 8.517638090205041 10.368148347421865
    vertex -1.9999999999999998 8.353974668368958 8.827980329197127
    vertex -1.0000000000000009 7.999999999999999 10.3
  endloop
endfacet
facet normal -0.8252134867337898 0.01654693017482046 0.564578515721641
  outer loop
    vertex -1.9999999999999998 8.353974668368958 8.827980329197127
    vertex -1.9999999999999998 7.443288458255316 8.8546711449301
    vertex -1.0000000000000009 7.999999999999999 10.3
  endloop
endfacet
facet normal -0.8330073540651887 0.07221517124035932 0.5485286839501096
  outer loop
    vertex -1.0000000000000009 7.999999999999999 10.3
    vertex -1.9999999999999998 7.443288458255316 8.8546711449301
    vertex -1.0000000000000009 7.4823619097949585 10.368148347421865
  endloop
endfacet
facet normal -0.8252134867337896 0.16210677952613448 0.5410583086362566
  outer loop
    vertex -1.0000000000000009 7.4823619097949585 10.368148347421865
    vertex -1.9999999999999998 7.443288458255316 8.8546711449301
    vertex -1.9999999999999998 6.570541219702253 9.11615542846095
  endloop
endfacet
facet normal -0.8330073540651887 0.2117241691422604 0.51114736062542
  outer loop
    vertex -1.0000000000000009 7.4823619097949585 10.368148347421865
    vertex -1.9999999999999998 6.570541219702253 9.11615542846095
    vertex -1.0000000000000009 7.0 10.567949192431124
  endloop
endfacet
facet normal -0.8252134867337896 0.29661931974686234 0.480665871958443
  outer loop
    vertex -1.0000000000000009 7.0 10.567949192431124
    vertex -1.9999999999999998 6.570541219702253 9.11615542846095
    vertex -1.9999999999999998 5.795209234734154 9.594613457990254
  endloop
endfacet
facet normal -0.8330073540651886 0.33680451480784895 0.4389321893850615
  outer loop
    vertex -1.0000000000000009 7.0 10.567949192431124
    vertex -1.9999999999999998 5.795209234734154 9.594613457990254
    vertex -1.0000000000000009 6.585786437626905 10.885786437626905
  endloop
endfacet
facet normal -0.8252134867337895 0.41091774351344446 0.38751685044457235
  outer loop
    vertex -1.0000000000000009 6.585786437626905 10.885786437626905
    vertex -1.9999999999999998 5.795209234734154 9.594613457990254
    vertex -1.9999999999999998 5.170130096829908 10.257439109494873
  endloop
endfacet
facet normal -0.8330073540651883 0.4389321893850614 0.33680451480784906
  outer loop
    vertex -1.0000000000000009 6.585786437626905 10.885786437626905
    vertex -1.9999999999999998 5.170130096829908 10.257439109494873
    vertex -1.0000000000000009 6.267949192431122 11.3
  endloop
endfacet
facet normal -0.8252134867337895 0.4972128021332636 0.26795919597477924
  outer loop
    vertex -1.0000000000000009 6.267949192431122 11.3
    vertex -1.9999999999999998 5.170130096829908 10.257439109494873
    vertex -1.9999999999999998 4.737901916245572 11.059461910195946
  endloop
endfacet
facet normal -0.8330073540651886 0.5111473606254205 0.21172416914225986
  outer loop
    vertex -1.0000000000000009 6.267949192431122 11.3
    vertex -1.9999999999999998 4.737901916245572 11.059461910195946
    vertex -1.0000000000000009 6.068148347421864 11.78236190979496
  endloop
endfacet
facet normal -0.8252134867337894 0.5496236299707075 0.13014056512281222
  outer loop
    vertex -1.0000000000000009 6.068148347421864 11.78236190979496
    vertex -1.9999999999999998 4.737901916245572 11.059461910195946
    vertex -1.9999999999999998 4.527980329197128 11.946025331631045
  endloop
endfacet
facet normal -0.8330073540651883 0.5485286839501102 0.07221517124035949
  outer loop
    vertex -1.0000000000000009 6.068148347421864 11.78236190979496
    vertex -1.9999999999999998 4.527980329197128 11.946025331631045
    vertex -1.0000000000000009 6.0 12.3
  endloop
endfacet
facet normal -0.8252134867337894 0.5645785157216414 -0.016546930174820472
  outer loop
    vertex -1.0000000000000009 6.0 12.3
    vertex -1.9999999999999998 4.527980329197128 11.946025331631045
    vertex -1.9999999999999998 4.554671144930102 12.856711541744684
  endloop
endfacet
facet normal -0.8330073540651883 0.5485286839501102 -0.07221517124035892
  outer loop
    vertex -1.0000000000000009 6.068148347421864 12.817638090205042
    vertex -1.0000000000000009 6.0 12.3
    vertex -1.9999999999999998 4.554671144930102 12.856711541744684
  endloop
endfacet
facet normal -0.8252134867337894 0.5410583086362573 -0.16210677952613486
  outer loop
    vertex -1.0000000000000009 6.068148347421864 12.817638090205042
    vertex -1.9999999999999998 4.554671144930102 12.856711541744684
    vertex -1.9999999999999998 4.8161554284609505 13.729458780297746
  endloop
endfacet
facet normal -0.8330073540651883 0.5111473606254202 -0.21172416914226092
  outer loop
    vertex -1.0000000000000009 6.221976379063778 13.18901181046811
    vertex -1.0000000000000009 6.068148347421864 12.817638090205042
    vertex -1.9999999999999998 4.8161554284609505 13.729458780297746
  endloop
endfacet
facet normal -0.0 -0.13052619222005143 -0.9914448613738105
  outer loop
    vertex 0.0 8.517638090205041 14.231851652578136
    vertex -1.0000000000000009 7.999999999999999 14.299999999999999
    vertex -1.0000000000000009 8.517638090205041 14.231851652578136
  endloop
endfacet
facet normal -0.0 -0.13052619222005143 -0.9914448613738105
  outer loop
    vertex -1.0000000000000009 7.999999999999999 14.299999999999999
    vertex 0.0 8.517638090205041 14.231851652578136
    vertex 0.0 7.999999999999999 14.299999999999999
  endloop
endfacet
facet normal -0.0 -0.3826834323650923 -0.9238795325112857
  outer loop
    vertex 0.0 8.999999999999998 14.032050807568876
    vertex -1.0000000000000009 8.517638090205041 14.231851652578136
    vertex -1.0000000000000009 8.999999999999998 14.032050807568876
  endloop
endfacet
facet normal -0.0 -0.3826834323650923 -0.9238795325112857
  outer loop
    vertex -1.0000000000000009 8.517638090205041 14.231851652578136
    vertex 0.0 8.999999999999998 14.032050807568876
    vertex 0.0 8.517638090205041 14.231851652578136
  endloop
endfacet
facet normal -0.0 -0.6087614290087213 -0.7933533402912347
  outer loop
    vertex 0.0 9.414213562373094 13.714213562373093
    vertex -1.0000000000000009 8.999999999999998 14.032050807568876
    vertex -1.0000000000000009 9.414213562373094 13.714213562373093
  endloop
endfacet
facet normal -0.0 -0.6087614290087213 -0.7933533402912347
  outer loop
    vertex -1.0000000000000009 8.999999999999998 14.032050807568876
    vertex 0.0 9.414213562373094 13.714213562373093
    vertex 0.0 8.999999999999998 14.032050807568876
  endloop
endfacet
facet normal -0.0 -0.7933533402912347 -0.6087614290087213
  outer loop
    vertex 0.0 9.414213562373094 13.714213562373093
    vertex -1.0000000000000009 9.732050807568877 13.299999999999999
    vertex 0.0 9.732050807568877 13.299999999999999
  endloop
endfacet
facet normal -0.0 -0.7933533402912347 -0.6087614290087213
  outer loop
    vertex -1.0000000000000009 9.732050807568877 13.299999999999999
    vertex 0.0 9.414213562373094 13.714213562373093
    vertex -1.0000000000000009 9.414213562373094 13.714213562373093
  endloop
endfacet
facet normal -0.0 -0.9238795325112881 -0.3826834323650867
  outer loop
    vertex 0.0 9.732050807568877 13.299999999999999
    vertex -1.0000000000000009 9.931851652578134 12.81763809020504
    vertex 0.0 9.931851652578134 12.81763809020504
  endloop
endfacet
facet normal -0.0 -0.9238795325112881 -0.3826834323650867
  outer loop
    vertex -1.0000000000000009 9.931851652578134 12.81763809020504
    vertex 0.0 9.732050807568877 13.299999999999999
    vertex -1.0000000000000009 9.732050807568877 13.299999999999999
  endloop
endfacet
facet normal -0.0 -0.9914448613738104 -0.13052619222005216
  outer loop
    vertex 0.0 9.931851652578134 12.81763809020504
    vertex -1.0000000000000009 9.999999999999996 12.3
    vertex 0.0 9.999999999999996 12.3
  endloop
endfacet
facet normal -0.0 -0.9914448613738104 -0.13052619222005216
  outer loop
    vertex -1.0000000000000009 9.999999999999996 12.3
    vertex 0.0 9.931851652578134 12.81763809020504
    vertex -1.0000000000000009 9.931851652578134 12.81763809020504
  endloop
endfacet
facet normal -0.0 -0.9914448613738105 0.13052619222005143
  outer loop
    vertex 0.0 9.999999999999996 12.3
    vertex -1.0000000000000009 9.931851652578134 11.782361909794957
    vertex 0.0 9.931851652578134 11.782361909794957
  endloop
endfacet
facet normal -0.0 -0.9914448613738105 0.13052619222005143
  outer loop
    vertex -1.0000000000000009 9.931851652578134 11.782361909794957
    vertex 0.0 9.999999999999996 12.3
    vertex -1.0000000000000009 9.999999999999996 12.3
  endloop
endfacet
facet normal -0.0 -0.9238795325112888 0.38268343236508495
  outer loop
    vertex 0.0 9.931851652578134 11.782361909794957
    vertex -1.0000000000000009 9.77802362093622 11.410988189531889
    vertex 0.0 9.77802362093622 11.410988189531889
  endloop
endfacet
facet normal -0.0 -0.9238795325112888 0.38268343236508495
  outer loop
    vertex -1.0000000000000009 9.77802362093622 11.410988189531889
    vertex 0.0 9.931851652578134 11.782361909794957
    vertex -1.0000000000000009 9.931851652578134 11.782361909794957
  endloop
endfacet
facet normal -0.0 -0.9238795325112856 0.3826834323650927
  outer loop
    vertex 0.0 9.77802362093622 11.410988189531889
    vertex -1.0000000000000009 9.732050807568877 11.299999999999999
    vertex 0.0 9.732050807568877 11.299999999999999
  endloop
endfacet
facet normal -0.0 -0.9238795325112856 0.3826834323650927
  outer loop
    vertex -1.0000000000000009 9.732050807568877 11.299999999999999
    vertex 0.0 9.77802362093622 11.410988189531889
    vertex -1.0000000000000009 9.77802362093622 11.410988189531889
  endloop
endfacet
facet normal -0.0 -0.7933533402912347 0.6087614290087213
  outer loop
    vertex 0.0 9.732050807568877 11.299999999999999
    vertex -1.0000000000000009 9.414213562373094 10.885786437626905
    vertex 0.0 9.414213562373094 10.885786437626905
  endloop
endfacet
facet normal -0.0 -0.7933533402912347 0.6087614290087213
  outer loop
    vertex -1.0000000000000009 9.414213562373094 10.885786437626905
    vertex 0.0 9.732050807568877 11.299999999999999
    vertex -1.0000000000000009 9.732050807568877 11.299999999999999
  endloop
endfacet
facet normal -0.0 -0.6087614290087197 0.7933533402912359
  outer loop
    vertex 0.0 8.999999999999998 10.567949192431124
    vertex -1.0000000000000009 9.414213562373094 10.885786437626905
    vertex -1.0000000000000009 8.999999999999998 10.567949192431124
  endloop
endfacet
facet normal -0.0 -0.6087614290087197 0.7933533402912359
  outer loop
    vertex -1.0000000000000009 9.414213562373094 10.885786437626905
    vertex 0.0 8.999999999999998 10.567949192431124
    vertex 0.0 9.414213562373094 10.885786437626905
  endloop
endfacet
facet normal -0.0 -0.38268343236508995 0.9238795325112867
  outer loop
    vertex 0.0 8.517638090205041 10.368148347421865
    vertex -1.0000000000000009 8.999999999999998 10.567949192431124
    vertex -1.0000000000000009 8.517638090205041 10.368148347421865
  endloop
endfacet
facet normal -0.0 -0.38268343236508995 0.9238795325112867
  outer loop
    vertex -1.0000000000000009 8.999999999999998 10.567949192431124
    vertex 0.0 8.517638090205041 10.368148347421865
    vertex 0.0 8.999999999999998 10.567949192431124
  endloop
endfacet
facet normal -0.0 -0.13052619222005143 0.9914448613738105
  outer loop
    vertex 0.0 7.999999999999999 10.3
    vertex -1.0000000000000009 8.517638090205041 10.368148347421865
    vertex -1.0000000000000009 7.999999999999999 10.3
  endloop
endfacet
facet normal -0.0 -0.13052619222005143 0.9914448613738105
  outer loop
    vertex -1.0000000000000009 8.517638090205041 10.368148347421865
    vertex 0.0 7.999999999999999 10.3
    vertex 0.0 8.517638090205041 10.368148347421865
  endloop
endfacet
facet normal 0.0 0.1305261922200518 0.9914448613738104
  outer loop
    vertex 0.0 7.4823619097949585 10.368148347421865
    vertex -1.0000000000000009 7.999999999999999 10.3
    vertex -1.0000000000000009 7.4823619097949585 10.368148347421865
  endloop
endfacet
facet normal 0.0 0.1305261922200518 0.9914448613738104
  outer loop
    vertex -1.0000000000000009 7.999999999999999 10.3
    vertex 0.0 7.4823619097949585 10.368148347421865
    vertex 0.0 7.999999999999999 10.3
  endloop
endfacet
facet normal 0.0 0.38268343236508895 0.9238795325112871
  outer loop
    vertex 0.0 7.0 10.567949192431124
    vertex -1.0000000000000009 7.4823619097949585 10.368148347421865
    vertex -1.0000000000000009 7.0 10.567949192431124
  endloop
endfacet
facet normal 0.0 0.38268343236508895 0.9238795325112871
  outer loop
    vertex -1.0000000000000009 7.4823619097949585 10.368148347421865
    vertex 0.0 7.0 10.567949192431124
    vertex 0.0 7.4823619097949585 10.368148347421865
  endloop
endfacet
facet normal 0.0 0.6087614290087197 0.7933533402912359
  outer loop
    vertex 0.0 6.585786437626905 10.885786437626905
    vertex -1.0000000000000009 7.0 10.567949192431124
    vertex -1.0000000000000009 6.585786437626905 10.885786437626905
  endloop
endfacet
facet normal 0.0 0.6087614290087197 0.7933533402912359
  outer loop
    vertex -1.0000000000000009 7.0 10.567949192431124
    vertex 0.0 6.585786437626905 10.885786437626905
    vertex 0.0 7.0 10.567949192431124
  endloop
endfacet
facet normal 0.0 0.7933533402912358 0.6087614290087201
  outer loop
    vertex -1.0000000000000009 6.267949192431122 11.3
    vertex 0.0 6.585786437626905 10.885786437626905
    vertex -1.0000000000000009 6.585786437626905 10.885786437626905
  endloop
endfacet
facet normal 0.0 0.7933533402912358 0.6087614290087201
  outer loop
    vertex 0.0 6.585786437626905 10.885786437626905
    vertex -1.0000000000000009 6.267949192431122 11.3
    vertex 0.0 6.267949192431122 11.3
  endloop
endfacet
facet normal 0.0 0.9238795325112871 0.38268343236508895
  outer loop
    vertex -1.0000000000000009 6.068148347421864 11.78236190979496
    vertex 0.0 6.267949192431122 11.3
    vertex -1.0000000000000009 6.267949192431122 11.3
  endloop
endfacet
facet normal 0.0 0.9238795325112871 0.38268343236508895
  outer loop
    vertex 0.0 6.267949192431122 11.3
    vertex -1.0000000000000009 6.068148347421864 11.78236190979496
    vertex 0.0 6.068148347421864 11.78236190979496
  endloop
endfacet
facet normal 0.0 0.9914448613738104 0.1305261922200518
  outer loop
    vertex -1.0000000000000009 6.0 12.3
    vertex 0.0 6.068148347421864 11.78236190979496
    vertex -1.0000000000000009 6.068148347421864 11.78236190979496
  endloop
endfacet
facet normal 0.0 0.9914448613738104 0.1305261922200518
  outer loop
    vertex 0.0 6.068148347421864 11.78236190979496
    vertex -1.0000000000000009 6.0 12.3
    vertex 0.0 6.0 12.3
  endloop
endfacet
facet normal -0.0 0.9914448613738105 -0.13052619222005143
  outer loop
    vertex -1.0000000000000009 6.068148347421864 12.817638090205042
    vertex 0.0 6.0 12.3
    vertex -1.0000000000000009 6.0 12.3
  endloop
endfacet
facet normal -0.0 0.9914448613738105 -0.13052619222005143
  outer loop
    vertex 0.0 6.0 12.3
    vertex -1.0000000000000009 6.068148347421864 12.817638090205042
    vertex 0.0 6.068148347421864 12.817638090205042
  endloop
endfacet
facet normal -0.0 0.9238795325112865 -0.38268343236509034
  outer loop
    vertex -1.0000000000000009 6.221976379063778 13.18901181046811
    vertex 0.0 6.068148347421864 12.817638090205042
    vertex -1.0000000000000009 6.068148347421864 12.817638090205042
  endloop
endfacet
facet normal -0.0 0.9238795325112865 -0.38268343236509034
  outer loop
    vertex 0.0 6.068148347421864 12.817638090205042
    vertex -1.0000000000000009 6.221976379063778 13.18901181046811
    vertex 0.0 6.221976379063778 13.18901181046811
  endloop
endfacet
facet normal -0.0 0.923879532511289 -0.3826834323650844
  outer loop
    vertex -1.0000000000000009 6.267949192431122 13.3
    vertex 0.0 6.221976379063778 13.18901181046811
    vertex -1.0000000000000009 6.221976379063778 13.18901181046811
  endloop
endfacet
facet normal -0.0 0.923879532511289 -0.3826834323650844
  outer loop
    vertex 0.0 6.221976379063778 13.18901181046811
    vertex -1.0000000000000009 6.267949192431122 13.3
    vertex 0.0 6.267949192431122 13.3
  endloop
endfacet
facet normal -0.0 0.7933533402912347 -0.6087614290087213
  outer loop
    vertex -1.0000000000000009 6.585786437626905 13.714213562373097
    vertex 0.0 6.267949192431122 13.3
    vertex -1.0000000000000009 6.267949192431122 13.3
  endloop
endfacet
facet normal -0.0 0.7933533402912347 -0.6087614290087213
  outer loop
    vertex 0.0 6.267949192431122 13.3
    vertex -1.0000000000000009 6.585786437626905 13.714213562373097
    vertex 0.0 6.585786437626905 13.714213562373097
  endloop
endfacet
facet normal -0.0 0.6087614290087201 -0.7933533402912358
  outer loop
    vertex 0.0 7.000000000000001 14.03205080756888
    vertex -1.0000000000000009 6.585786437626905 13.714213562373097
    vertex -1.0000000000000009 7.000000000000001 14.03205080756888
  endloop
endfacet
facet normal -0.0 0.6087614290087201 -0.7933533402912358
  outer loop
    vertex -1.0000000000000009 6.585786437626905 13.714213562373097
    vertex 0.0 7.000000000000001 14.03205080756888
    vertex 0.0 6.585786437626905 13.714213562373097
  endloop
endfacet
facet normal -0.0 0.3826834323650867 -0.9238795325112881
  outer loop
    vertex 0.0 7.482361909794959 14.231851652578136
    vertex -1.0000000000000009 7.000000000000001 14.03205080756888
    vertex -1.0000000000000009 7.482361909794959 14.231851652578136
  endloop
endfacet
facet normal -0.0 0.3826834323650867 -0.9238795325112881
  outer loop
    vertex -1.0000000000000009 7.000000000000001 14.03205080756888
    vertex 0.0 7.482361909794959 14.231851652578136
    vertex 0.0 7.000000000000001 14.03205080756888
  endloop
endfacet
facet normal -0.0 0.13052619222005216 -0.9914448613738104
  outer loop
    vertex 0.0 7.999999999999999 14.299999999999999
    vertex -1.0000000000000009 7.482361909794959 14.231851652578136
    vertex -1.0000000000000009 7.999999999999999 14.299999999999999
  endloop
endfacet
facet normal -0.0 0.13052619222005216 -0.9914448613738104
  outer loop
    vertex -1.0000000000000009 7.482361909794959 14.231851652578136
    vertex 0.0 7.999999999999999 14.299999999999999
    vertex 0.0 7.482361909794959 14.231851652578136
  endloop
endfacet
facet normal 0.0 -1.0 0.0
  outer loop
    vertex 0.0 0.0 8.3
    vertex -1.9999999999999998 0.0 6.300000000000001
    vertex 1.762479051592436e-16 0.0 5.2042553191489365
  endloop
endfacet
facet normal 0.0 -1.0 0.0
  outer loop
    vertex -1.9999999999999998 0.0 6.300000000000001
    vertex 0.0 0.0 8.3
    vertex -1.9999999999999998 0.0 8.3
  endloop
endfacet
facet normal 0.0 0.0 -1.0
  outer loop
    vertex 21.0 15.999999999999993 -3.999999999999999
    vertex 16.8 0.0 -3.999999999999999
    vertex 16.8 15.999999999999998 -3.999999999999999
  endloop
endfacet
facet normal 0.0 0.0 -1.0
  outer loop
    vertex 16.8 0.0 -3.999999999999999
    vertex 21.0 15.999999999999993 -3.999999999999999
    vertex 21.0 0.0 -3.999999999999999
  endloop
endfacet
facet normal 0.0 -1.0 0.0
  outer loop
    vertex 21.0 0.0 0.0
    vertex 16.8 0.0 -3.999999999999999
    vertex 21.0 0.0 -3.999999999999999
  endloop
endfacet
facet normal 0.0 -1.0 0.0
  outer loop
    vertex 16.8 0.0 -3.999999999999999
    vertex 21.0 0.0 0.0
    vertex 16.8 0.0 0.0
  endloop
endfacet
facet normal 1.0859751081489095e-21 -1.0 -9.216571711029024e-22
  outer loop
    vertex 41.402943422708994 4.678542638361807e-20 3.0000000000000027
    vertex 21.0 0.0 0.0
    vertex 21.0 0.0 -3.999999999999999
  endloop
endfacet
facet normal 1.0859751081489095e-21 -1.0 -9.216571711029024e-22
  outer loop
    vertex 21.0 0.0 0.0
    vertex 41.402943422708994 4.678542638361807e-20 3.0000000000000027
    vertex 39.4 0.0 3.000000000000002
  endloop
endfacet
facet normal 1.0859751081489095e-21 -1.0 -9.216571711029024e-22
  outer loop
    vertex 39.4 0.0 3.000000000000002
    vertex 21.0 0.0 5.000000000000002
    vertex 21.0 0.0 0.0
  endloop
endfacet
facet normal 1.0859751081489095e-21 -1.0 -9.216571711029024e-22
  outer loop
    vertex 21.0 0.0 5.000000000000002
    vertex 39.4 0.0 3.000000000000002
    vertex 39.4 0.0 5.000000000000002
  endloop
endfacet
facet normal 0.0 -1.0 0.0
  outer loop
    vertex 16.8 0.0 0.0
    vertex 1.762479051592436e-16 0.0 5.2042553191489365
    vertex 16.8 0.0 -3.999999999999999
  endloop
endfacet
facet normal 0.0 -1.0 0.0
  outer loop
    vertex 1.762479051592436e-16 0.0 5.2042553191489365
    vertex 16.8 0.0 0.0
    vertex 16.8 0.0 8.3
  endloop
endfacet
facet normal 0.0 -1.0 0.0
  outer loop
    vertex 1.762479051592436e-16 0.0 5.2042553191489365
    vertex 16.8 0.0 8.3
    vertex 0.0 0.0 8.3
  endloop
endfacet
facet normal -0.48048550439694476 0.0 -0.877002668219666
  outer loop
    vertex 1.762479051592436e-16 15.999999999999998 5.2042553191489365
    vertex -1.9999999999999998 0.0 6.300000000000001
    vertex -1.9999999999999998 15.999999999999998 6.300000000000001
  endloop
endfacet
facet normal -0.48048550439694476 0.0 -0.877002668219666
  outer loop
    vertex -1.9999999999999998 0.0 6.300000000000001
    vertex 1.762479051592436e-16 15.999999999999998 5.2042553191489365
    vertex 1.762479051592436e-16 0.0 5.2042553191489365
  endloop
endfacet
facet normal -0.48048550439694476 0.0 -0.8770026682196661
  outer loop
    vertex 16.8 15.999999999999998 -3.999999999999999
    vertex 1.762479051592436e-16 0.0 5.2042553191489365
    vertex 1.762479051592436e-16 15.999999999999998 5.2042553191489365
  endloop
endfacet
facet normal -0.48048550439694476 0.0 -0.8770026682196661
  outer loop
    vertex 1.762479051592436e-16 0.0 5.2042553191489365
    vertex 16.8 15.999999999999998 -3.999999999999999
    vertex 16.8 0.0 -3.999999999999999
  endloop
endfacet
facet normal 0.32451950194735507 0.0 -0.9458790053996552
  outer loop
    vertex 41.402943422708994 15.999999999999993 3.0000000000000027
    vertex 21.0 0.0 -3.999999999999999
    vertex 21.0 15.999999999999993 -3.999999999999999
  endloop
endfacet
facet normal 0.32451950194735507 0.0 -0.9458790053996552
  outer loop
    vertex 21.0 0.0 -3.999999999999999
    vertex 41.402943422708994 15.999999999999993 3.0000000000000027
    vertex 41.402943422708994 4.678542638361807e-20 3.0000000000000027
  endloop
endfacet
endsolid router
